<svg xmlns="http://www.w3.org/2000/svg" viewBox="-40 5 160 80"><g fill="currentColor"><path d="M76.4,53.8C67.9,46.3,65.7,40.2,63.2,33c-1-2.9-2.1-6-3.7-9.3c-2.5-5.3-3.4-6-5.1-5.8   c-0.7,0.1-1.9,0.2-6.2-5.6c-2.1-2.8-4.2-4.1-6.5-4.2c-4.7-0.1-9.1,5.3-14.6,12.1c-3.3,4.1-7.1,8.8-11.4,12.8   c-0.3,0.2-0.5,0.5-0.8,0.7c0,0,0,0,0,0c-0.1,0.1-0.1,0.1-0.2,0.2c-0.1,0.1-0.2,0.2-0.2,0.3c-7.3,7.5-11,15-8.6,30.3   c0.6,4.1,6.1,6,12.5,8.2c0.7,0.2,1.3,0.5,2,0.7c0,0,0,0,0,0c3.2,1.2,7.5,1.9,12.9,2.3c0,0,0,0,0.1,0c0.5,0,1-0.4,1-0.9   c0-0.6-0.4-1-0.9-1.1c-8.9-0.7-14.9-2.4-17.1-5.1c-0.8-0.9-1.1-2-1-3.2c0.1-0.9,0.1-1.8,0.2-2.7c0.1-0.5,0.9-4.5,5.4-4.1   c3.3,0.3,20.1,1.3,25.9-12.2c4.3-10,7.9-10.9,10.7-11.6c1.3-0.3,2.6-0.6,3.8-1.7c0,0.1,0.1,0.3,0.1,0.4c2.5,7.1,4.9,13.8,13.8,21.6   c5.4,4.7,8,8,8,10.2c0,0.9-0.5,1.7-1.6,2.6c-0.4,0.4-0.5,1-0.1,1.4c0.4,0.4,1,0.5,1.4,0.1c1-0.8,2.3-2.1,2.3-4.1   C85.1,62.6,82.4,59,76.4,53.8z M41.6,9.9c1.7,0,3.3,1.3,5,3.5c2.3,3.1,3.9,4.8,5.2,5.7c-1,0.6-2,1.4-2.9,2.1   c-3.1,2.4-4.8,3.6-7.4,1.2c-4-3.8-3.3-5.8-1.8-9.9c0.3-0.7,0.6-1.5,0.8-2.4C40.8,10,41.2,9.9,41.6,9.9C41.5,9.9,41.5,9.9,41.6,9.9z    M7.7,64.4c-1.6-10.2-0.4-16.7,2.9-22.1c-0.2,2.6,0.4,5.3,1.1,8.3c1,4.1,2.1,8.7,1.4,14.8C13,66.8,13.3,68,14,69.2   C10.5,67.8,8,66.4,7.7,64.4z M56.9,33.1c-3.1,0.8-7.4,1.8-12.1,12.7c-5.2,12.2-20.8,11.3-23.9,11c-2.7-0.3-4.5,0.7-5.7,2   c-0.3-3.3-0.9-6.2-1.5-8.7c-1.3-5.4-2.2-9.2,1.4-13.6c0.4-0.4,0.8-0.8,1.2-1.2c0.1-0.1,0.1-0.1,0.1-0.2c0.2-0.2,0.4-0.4,0.6-0.6   c4.5-4.1,8.3-8.9,11.7-13.1c3.4-4.2,6.5-8.2,9.3-10.1c-0.1,0.1-0.1,0.3-0.2,0.5c-1.6,4.3-2.7,7.4,2.3,12.1c1.4,1.3,2.8,1.8,4.1,1.8   c2.2,0,4.2-1.6,5.9-2.9c1.5-1.2,3.1-2.5,4.8-2.8c0.4,0.1,1,0.8,2.9,4.7c1.1,2.3,1.9,4.4,2.7,6.5C59.5,32.5,58.4,32.7,56.9,33.1z"/><path d="M53.6,78.7c-3.9,0.4-7.8,0.7-8.8,0.7c-4.4-1.8-6.7-3.5-6.9-5.1c-0.2-1.5,1.2-3.4,4.4-6.2   c-0.1,0.9,0,1.6,0.6,2.2c0.4,0.3,1,0.5,1.6,0.5c2.5,0,6.2-2.2,8.3-3.8c0.3,0.5,0.5,1,0.8,1.5c0.3,0.5,0.9,0.7,1.4,0.4   c0.5-0.3,0.7-0.9,0.4-1.4c-0.7-1.3-1.3-2.5-1.8-3.6c-0.7-1.7-1.4-3.1-2.7-3.4c-1.8-0.5-3.9,1.2-8.8,5.2c-3.4,2.8-6.6,5.8-6.1,8.9   c0.4,2.5,2.9,4.6,8.3,6.8c0.1,0,0.2,0.1,0.4,0.1c0,0,0,0,0.1,0c0,0,4.6-0.3,9.1-0.8c0.5-0.1,1-0.5,0.9-1.1   C54.7,79.1,54.2,78.7,53.6,78.7z M50.4,62.5c0.5,0.1,1.1,1.6,1.4,2.2c0.1,0.1,0.1,0.3,0.2,0.4c-2.4,2.1-6.9,4.1-7.7,3.7   c0,0-0.2-0.8,1.6-3.6C48,63.6,49.7,62.3,50.4,62.5z"/><path d="M77.8,70.2c-1.8-0.6-4.3-1.5-7-3.1c-2.4-1.5-4.4-2.2-6.1-2.2c-2.4,0-3.8,1.3-5.1,2.4c-1,0.9-2,1.8-3.3,2   c-2,0.4-4.6,1.1-5,3c-0.4,2.1,2,4,4.6,5.8c2.7,1.8,7.5,3.6,12.2,3.6c3.5,0,6.4-1,8.7-2.9c4.1-3.4,5.2-4.7,5-6.1   C81.4,71.5,80,71,77.8,70.2z M64.7,66.9c1.1,0,2.4,0.4,4,1.3c-0.9,0.4-1.6,1-2.3,1.6c-1.1,1-2.4,2-4.2,2.6   c-0.4,0.1-0.8,0.4-1.8,0.5c0,0,0,0,0,0c0-0.7,0-1.8-0.5-3.2c0.3-0.3,0.6-0.5,0.9-0.8C62.1,67.8,63.1,66.9,64.7,66.9z M75.4,77.4   C73.5,79,71,79.8,68,79.8c-4.3,0-8.7-1.7-11-3.3c-3.7-2.5-3.8-3.5-3.8-3.7c0-0.1,0.3-0.9,3.4-1.4c0.7-0.1,1.3-0.3,1.8-0.6   c0.3,1,0.3,1.7,0.4,2.2c0,0.6,0.1,1.3,0.7,1.7c0.3,0.2,0.5,0.3,0.9,0.3c0.6,0,1.4-0.3,2.7-0.7c2.3-0.7,3.7-2,4.9-3   c1.5-1.3,2.2-1.9,3.7-1.6c2.2,1.1,4.2,1.8,5.7,2.4c1,0.4,2.4,0.8,2.5,1C79.7,73.6,78.2,75.1,75.4,77.4z"/></g></svg>
