<svg xmlns="http://www.w3.org/2000/svg" viewBox="-45 6 180 90"><path fill="currentColor" d="M85.236,33.621c0-0.006-0.002-0.012-0.002-0.017c-0.001-0.091-0.009-0.182-0.025-0.273  c-0.001-0.009-0.004-0.017-0.006-0.027c-0.008-0.038-0.015-0.077-0.026-0.115c-0.015-0.055-0.034-0.109-0.055-0.161L79.278,18.09  c-0.003-0.006-0.007-0.01-0.008-0.016c-0.029-0.071-0.063-0.141-0.104-0.207c-0.007-0.013-0.013-0.025-0.021-0.038  c-0.042-0.067-0.09-0.131-0.142-0.193c-0.012-0.013-0.022-0.025-0.033-0.038c-0.02-0.021-0.037-0.043-0.058-0.063  c-0.033-0.033-0.069-0.064-0.104-0.094c-0.007-0.005-0.013-0.011-0.02-0.017c-0.062-0.05-0.128-0.094-0.195-0.133  c-0.01-0.006-0.019-0.014-0.028-0.019L65.247,9.8c-0.188-0.105-0.396-0.172-0.61-0.196L50.019,7.98  c-0.117-0.013-0.233-0.013-0.348-0.001c-0.116-0.012-0.235-0.012-0.352,0.002L35.026,9.605c-0.207,0.024-0.407,0.087-0.59,0.187  l-14.294,7.797c-0.003,0.002-0.006,0.005-0.01,0.006c-0.078,0.043-0.151,0.094-0.221,0.15c-0.011,0.008-0.022,0.017-0.032,0.025  c-0.053,0.044-0.104,0.091-0.152,0.142c-0.012,0.013-0.022,0.028-0.034,0.041c-0.009,0.012-0.019,0.023-0.028,0.035  c-0.055,0.069-0.105,0.141-0.148,0.216c-0.006,0.01-0.011,0.021-0.018,0.033c-0.043,0.08-0.081,0.163-0.11,0.249  c-0.001,0.002-0.002,0.004-0.003,0.007l-5.197,15.594c-0.055,0.165-0.083,0.336-0.083,0.509v33.786c0,0.201,0.038,0.399,0.111,0.587  l5.848,14.942c0.001,0.006,0.004,0.01,0.007,0.016c0.03,0.074,0.065,0.146,0.107,0.216c0.008,0.015,0.018,0.028,0.027,0.042  c0.04,0.064,0.084,0.127,0.134,0.186c0.005,0.005,0.009,0.011,0.013,0.016c0.041,0.047,0.084,0.091,0.13,0.133  c0.01,0.01,0.023,0.016,0.033,0.025c0.041,0.034,0.085,0.066,0.13,0.097c0.035,0.024,0.067,0.05,0.104,0.07  c0.009,0.006,0.018,0.013,0.027,0.019L34.094,92.2c0.189,0.105,0.396,0.173,0.61,0.196l14.619,1.623  c0.059,0.008,0.117,0.011,0.175,0.011c0.001,0,0.001,0,0.001,0c0,0,0,0,0.001,0l0,0h0.34c0.06,0,0.121-0.003,0.182-0.011  l0.114-0.013c0.088,0.015,0.176,0.023,0.266,0.023c0.21,0,0.421-0.042,0.62-0.124l13.295-1.511c0.207-0.023,0.406-0.087,0.589-0.187  l14.294-7.797c0.004-0.001,0.006-0.005,0.01-0.006c0.085-0.047,0.165-0.101,0.241-0.163c0,0,0-0.001,0.001-0.001  c0.04-0.033,0.079-0.067,0.116-0.105c0.026-0.026,0.051-0.056,0.075-0.084c0.01-0.011,0.02-0.021,0.029-0.033  c0.056-0.068,0.104-0.14,0.148-0.215c0.01-0.016,0.018-0.031,0.025-0.047c0.043-0.08,0.08-0.161,0.109-0.246  c0-0.001,0-0.003,0.001-0.004l5.197-15.594c0.002-0.004,0.002-0.01,0.004-0.015c0.041-0.129,0.068-0.264,0.077-0.404  c0-0.021,0-0.043,0-0.063c0-0.01,0.002-0.018,0.002-0.026V33.621z M79.131,75.796l-0.904-7.08l3.205,0.18L79.131,75.796z   M39.743,81.896l9.936-3.91l9.21,3.525l-8.991,9.125L39.743,81.896z M37.486,21.223l8.337,4.216l-9.391,3.916L37.486,21.223z   M81.477,32.547l-3.088,0.86l0.508-7.453L81.477,32.547z M82.016,43.505l-3.142-6.89l3.142-0.875V43.505z M49.626,74.483  l-13.884-6.011l-6.611-17.479l6.613-17.863L49.6,27.355l13.885,6.011l6.611,17.478l-6.613,17.862L49.626,74.483z M27.459,46.231  l-3.333-9.594l7.725-2.271L27.459,46.231z M27.502,55.796l4.421,11.686l-7.774-1.677L27.502,55.796z M71.677,45.919l-4.284-11.326  l7.201,2.068L71.677,45.919z M71.609,56.032l2.772,9.81l-7.061,1.774L71.609,56.032z M73.496,50.863l3.406-10.809l4.955,10.869  L76.73,62.308L73.496,50.863z M75.156,33.471l-8.938-2.566l-1.188-9.688l11.014-0.799L75.156,33.471z M61.89,22.064l0.919,7.5  l-9.136-3.955L61.89,22.064z M33.014,30.666l-9.494,2.793l-0.884-12.873l11.708-0.188L33.014,30.666z M21.891,40.02l3.818,10.99  l-3.753,11.202l-4.503-11.864L21.891,40.02z M23.604,68.982l9.487,2.046l1.681,8.967l-11.542,1.49L23.604,68.982z M37.894,79.161  l-1.275-6.799l8.834,3.825L37.894,79.161z M60.678,78.747l-6.729-2.576l8.382-3.494L60.678,78.747z M66.056,71.256l8.96-2.252  l1.551,12.135l-12.761-1.617L66.056,71.256z M78.814,65.522l3.201-7.105v7.285L78.814,65.522z M63.956,12.77l8.358,4.689  l-8.61,0.625l-8.498-6.286L63.956,12.77z M49.618,11.671l10.399,7.691l-10.293,4.44l-10.362-5.241L49.618,11.671z M35.703,12.77  l7.828-0.889l-7.851,5.274l-8.259,0.132L35.703,12.77z M19.865,27.242l0.552,8.049l-3.09,7.192v-7.626L19.865,27.242z   M17.327,59.093l3.104,8.179l-0.243,8.12l-2.862-7.315V59.093z M26.593,84.299l9.57-1.235l8.342,7.181l-9.12-1.014L26.593,84.299z   M63.64,89.23l-8.823,1.003l7.536-7.648l10.931,1.386L63.64,89.23z"/></svg>
