<svg xmlns="http://www.w3.org/2000/svg" viewBox="-45 6 180 90"><path fill="currentColor" d="M94.124,52.342c0-0.007,0.001-0.015,0.001-0.022c0-0.081-0.009-0.162-0.022-0.243c-0.001-0.008-0.001-0.018-0.002-0.026  L93.8,50.438c-0.005-0.021-0.009-0.041-0.013-0.061L89.58,32.051l0,0c-0.019-0.084-0.047-0.166-0.081-0.247  c-0.003-0.009-0.007-0.018-0.01-0.026c-0.024-0.053-0.051-0.107-0.081-0.159c-0.012-0.02-0.024-0.037-0.036-0.055  c-0.005-0.006-0.008-0.014-0.013-0.021l-8.712-12.918c0,0,0-0.001-0.001-0.001c-0.045-0.068-0.099-0.131-0.156-0.192  c-0.011-0.011-0.021-0.022-0.033-0.034c-0.008-0.009-0.016-0.018-0.024-0.026c-0.05-0.047-0.104-0.089-0.159-0.129  c-0.004-0.003-0.008-0.007-0.013-0.012L68.243,9.818c-0.006-0.005-0.013-0.007-0.019-0.011c-0.025-0.018-0.051-0.033-0.077-0.048  c-0.019-0.013-0.039-0.025-0.061-0.036c-0.007-0.003-0.013-0.008-0.02-0.011c-0.021-0.011-0.041-0.018-0.062-0.028  c-0.021-0.009-0.041-0.019-0.061-0.028c-0.034-0.013-0.066-0.024-0.099-0.035c-0.017-0.005-0.032-0.012-0.049-0.016  c-0.042-0.013-0.086-0.023-0.129-0.03c-0.007-0.002-0.014-0.004-0.021-0.006l-0.006-0.001c-0.003-0.001-0.006-0.002-0.01-0.002  L49.623,6.264c0,0,0,0-0.002,0c-0.012-0.002-0.024-0.003-0.038-0.005c-0.019-0.003-0.039-0.005-0.06-0.007  c-0.029-0.003-0.058-0.007-0.087-0.008c-0.007-0.001-0.014-0.002-0.02-0.002c-0.003,0-0.005,0-0.007,0c-0.012,0-0.024,0-0.036,0  c-0.027,0-0.055-0.001-0.082,0c-0.021,0.001-0.041,0.003-0.063,0.004c-0.011,0.001-0.023,0.002-0.035,0.003  c-0.016,0.002-0.031,0.003-0.047,0.005c-0.032,0.004-0.064,0.01-0.096,0.016c-0.013,0.003-0.027,0.004-0.04,0.008l-0.026,0.005  l-0.001,0.001l-18.3,4.2c-0.003,0.001-0.006,0.002-0.011,0.003c-0.081,0.02-0.16,0.046-0.24,0.08  c-0.008,0.003-0.018,0.007-0.027,0.012c-0.075,0.033-0.147,0.073-0.218,0.119c-0.004,0.002-0.009,0.004-0.013,0.006l-12.918,8.713  c-0.003,0.001-0.004,0.003-0.008,0.005c-0.067,0.046-0.129,0.098-0.188,0.155c-0.008,0.008-0.019,0.015-0.026,0.024  c-0.007,0.006-0.013,0.012-0.02,0.017c-0.05,0.054-0.095,0.11-0.137,0.167c-0.005,0.006-0.01,0.012-0.014,0.019L8.454,31.821  c-0.01,0.014-0.018,0.028-0.027,0.042c-0.017,0.026-0.034,0.052-0.048,0.078c-0.011,0.018-0.02,0.036-0.029,0.054  c-0.015,0.029-0.031,0.059-0.043,0.09c-0.007,0.017-0.013,0.034-0.021,0.05c-0.013,0.033-0.024,0.066-0.034,0.099  c-0.006,0.017-0.011,0.034-0.015,0.051c-0.01,0.034-0.018,0.067-0.024,0.101c-0.002,0.011-0.005,0.021-0.007,0.031L4.898,50.443  c-0.001,0.01-0.001,0.02-0.003,0.031c-0.008,0.045-0.012,0.091-0.016,0.138c0,0.017-0.002,0.035-0.002,0.054  c-0.002,0.057-0.002,0.113,0.002,0.171c0,0.001,0,0.005,0.001,0.006c0.004,0.061,0.014,0.119,0.027,0.179  c0.002,0.014,0.006,0.028,0.008,0.042c0.012,0.047,0.025,0.092,0.041,0.14c0.004,0.012,0.008,0.025,0.013,0.038  c0.042,0.11,0.096,0.219,0.165,0.32c0.01,0.017,0.021,0.029,0.033,0.046c0.014,0.019,0.027,0.039,0.043,0.06  c0.011,0.014,0.023,0.026,0.037,0.04c0.013,0.016,0.025,0.029,0.04,0.044c0,0.001,0.001,0.002,0.002,0.004  c-0.115,0.278-0.148,0.595-0.076,0.911l4.206,18.326c0.001,0.004,0.004,0.01,0.005,0.015c0.02,0.081,0.046,0.161,0.078,0.239  c0.004,0.008,0.008,0.017,0.011,0.024c0.034,0.076,0.075,0.152,0.123,0.224c0.001,0.002,0.002,0.005,0.003,0.006l8.712,12.919  c0.003,0.003,0.007,0.007,0.009,0.011c0.045,0.066,0.097,0.128,0.152,0.186c0.012,0.014,0.024,0.025,0.036,0.036  c0.018,0.019,0.034,0.037,0.054,0.054c0.021,0.02,0.047,0.033,0.069,0.053c0.023,0.017,0.042,0.038,0.066,0.055l12.017,8.411  c0.013,0.011,0.028,0.02,0.043,0.027c0.018,0.013,0.035,0.025,0.054,0.036c0.005,0.003,0.012,0.006,0.018,0.009  c0.048,0.028,0.098,0.053,0.148,0.075c0.012,0.005,0.023,0.011,0.034,0.015c0.052,0.021,0.104,0.038,0.157,0.054  c0.023,0.008,0.048,0.011,0.072,0.017c0.023,0.006,0.046,0.014,0.068,0.018l18.025,3.305c0.011,0.002,0.021,0.001,0.029,0.003  c0.021,0.003,0.045,0.008,0.066,0.011c0.052,0.006,0.104,0.009,0.158,0.01c0.005,0,0.011,0.001,0.018,0.001c0.001,0,0.002,0,0.003,0  c0.005,0,0.009-0.001,0.011-0.001c0.065,0,0.131-0.006,0.195-0.015c0.015-0.003,0.029-0.004,0.043-0.006  c0.016-0.002,0.029-0.007,0.045-0.009c0.014-0.004,0.029-0.005,0.043-0.009l18.293-4.197c0.152-0.031,0.302-0.087,0.445-0.168  c0-0.001,0.001-0.001,0.002-0.002c0.011-0.007,0.021-0.013,0.032-0.021c0.002,0,0.003,0,0.004-0.001l0,0  c0.023-0.014,0.046-0.029,0.069-0.044l12.863-8.676c0.196-0.123,0.363-0.289,0.487-0.486l8.361-11.947  c0.01-0.013,0.016-0.024,0.024-0.036c0.02-0.03,0.039-0.061,0.056-0.094c0.008-0.013,0.015-0.025,0.022-0.04  c0.018-0.033,0.034-0.066,0.049-0.102c0.007-0.015,0.011-0.028,0.017-0.043c0.014-0.034,0.026-0.068,0.037-0.104  c0.006-0.017,0.01-0.032,0.015-0.049c0.008-0.033,0.017-0.066,0.023-0.101c0.003-0.01,0.005-0.018,0.007-0.028L94.102,52.6  c0.001-0.009,0.001-0.019,0.002-0.029c0.006-0.029,0.01-0.059,0.014-0.087C94.123,52.436,94.124,52.39,94.124,52.342z   M88.302,67.433l-6.909-6.148l9.102-5.809L88.302,67.433z M81.894,78.302l-1.836-14.152l7.235,6.438L81.894,78.302z M23.488,84.439  l12.074-2.083l-4.409,7.449L23.488,84.439z M8.792,54.719l9.49,7.991l-6.454,5.237L8.792,54.719z M10.745,35.356l6.39,4.744  l-8.519,6.874L10.745,35.356z M16.923,25.004l0.917,11.847l-6.061-4.5L16.923,25.004z M30.7,14.005l4.617,5.911l-12.559-0.555  L30.7,14.005z M75.281,18.442l-10.66,1.287l3.308-6.434L75.281,18.442z M85.95,31.903l-6.065,3.584L80.619,24L85.95,31.903z   M59.857,76.387l-7.537-5.775l8.952-2.239L59.857,76.387z M39.208,24.199l6.991,6.215l-10.099,2.524L39.208,24.199z M59.787,21.431  l-9.788,8.242h-0.073l-9.322-8.286l8.836-11.289L59.787,21.431z M60.94,24.419l1.765,9.801l-9.214-3.529L60.94,24.419z   M69.232,48.594l-2.558-10.229l8.851,1.081L69.232,48.594z M76.782,36.549l-10.818-1.322l-2.222-12.341l14.022-1.693L76.782,36.549z   M27.77,53.256l2.417,9.669l-7.159-1.301L27.77,53.256z M27.763,46.431l-5.444-5.728l8.825-3.099L27.763,46.431z M32.542,33.904  l-11.576,4.064l-1.218-15.707l16.673,0.736L32.542,33.904z M19.473,42.105l6.976,7.338L20.24,60.399L8.77,50.74L19.473,42.105z   M22.084,64.53l9.053,1.646l5.283,12.959l-15.205,2.623L22.084,64.53z M38.947,77.307L34.948,67.5l8.95,3.428L38.947,77.307z   M33.504,63.703l-3.599-14.394l4.955-12.938l14.676-3.669h0.735l13.122,5.025l3.599,14.394L62.037,65.06l-14.676,3.669h-0.735  L33.504,63.703z M69.171,54.901l6.149,5.957l-9.608,3.074L69.171,54.901z M78.385,59.609l-7.835-7.589l7.87-11.433l11.769,11.49  L78.385,59.609z M61.617,18.944l-8.116-8.889l11.594,2.125L61.617,18.944z M38.536,19.115l-4.853-6.211l11.841-2.718L38.536,19.115z   M18.975,66.049L18.324,78.96l-5.398-8.004L18.975,66.049z M38.677,83.041l7.469,10.064l-12.112-2.22L38.677,83.041z M49.611,92.694  l-9.176-12.366l6.652-8.57h0.459h1.29l10.009,7.669L49.611,92.694z M64.502,67.501l12.42-3.975l2.208,17.021l-16.456-2.689  L64.502,67.501z M80.663,38.545l6.429-3.798l2.98,12.985L80.663,38.545z M53.134,92.935l7.678-11.026l4.809,8.161L53.134,92.935z   M68.463,88.927l-4.6-7.806l13.02,2.129L68.463,88.927z"/></svg>
