<svg xmlns="http://www.w3.org/2000/svg" viewBox="0 0 100 100"><g><path d="M63.9,54.6c0.8-0.7,1.6-1.3,2.4-2.1l0.1,0c7.7,0,16-1.7,21.7-7.3c5.2-5.1,7.2-12.3,6.9-19.4l0-0.2c0-2.3-0.5-4.6-1.9-6.4     c-1.9-2.5-5-3.3-8-3.3l-3.3,0c-1.2,0-2.4,0.5-3.5,1c0.9-2.8-0.6-6-3.9-6H25.5c-3.3,0-4.8,3.2-3.9,6c-1.1-0.5-2.3-1-3.4-1l-3.3,0     c-2.9,0-5.9,0.8-7.8,3.1C5.6,20.8,5,23.2,5,25.5l0,0.3c-0.3,7,1.6,14.2,6.7,19.2c5.7,5.7,14.1,7.4,21.9,7.4l0.1,0     c3,2.8,6.6,5.1,8.8,8.7c-2.2,0.5-3.7,2.6-3.4,4.8c0.3,2.2,2.2,3.9,4.4,3.9h0.5c-1.1,3.7-3.8,10.4-9.3,10.4h-11     c-2.2,0-4,1.6-4.3,3.9c-0.4,2.6,1.9,4.9,4.4,4.9h52.6c2.4,0,4.6-2.2,4.4-4.6c-0.2-2.5-2.1-4.2-4.4-4.2h-11c-5.3,0-8-6-9.3-10.4     h0.5c2.2,0,4.1-1.7,4.4-3.9c0.3-2.2-1.2-4.4-3.4-4.8C58.6,59.3,60.7,57.2,63.9,54.6C64.7,53.9,60.7,57.2,63.9,54.6z M81.8,17.8     l3.3,0c2.3,0,4.9,0.6,6.4,2.5c1.2,1.5,1.5,3.4,1.5,5.3l0,0.3c0.3,6.3-1.3,12.7-5.7,17.4c-4.9,5.2-12.1,7-19,7.2     c0.9-1,1.8-2,2.5-3c5.7-0.6,11.6-2.5,15.3-7.1c3.2-4,4.3-9.3,4.1-14.4l0-0.5c0-1.4-0.2-2.9-1.3-3.9c-1-0.9-2.5-1.1-3.8-1.1     l-3.3,0c-1.5,0-1.6,0.9-1.6,1.1l0,1.4l-4.6,0c0.5-1.1,1.1-2.1,1.5-3.2C78,19.3,80.2,17.8,81.8,17.8z M74.5,35.8     c0-3.6-0.7-7.2,0.3-10.7l6.3,0c0.5,0,1-0.4,1-1l0-1.6l3,0c0.8,0,2.2,0,2.7,0.8c0.4,0.6,0.4,1.5,0.4,2.2l0,0.5     c0.2,4.4-0.7,9-3.3,12.6c-3,4-7.9,5.9-12.7,6.6C73.8,42.4,74.5,39.1,74.5,35.8z M12.9,43.5c-2.9-3-6.3-8.5-5.9-17.6l0-0.3     c0-1.9,0.3-3.8,1.5-5.3c1.5-1.9,4-2.5,6.4-2.5l3.3,0c1.6,0,3.8,1.4,4.7,2.2c0.5,1.1,1,2.1,1.5,3.2l-4.6,0l0-1.4     c0-0.3-0.1-1.2-1.6-1.2l-3.3,0c-1.3,0-2.8,0.2-3.8,1.1c-1.1,0.9-1.3,2.5-1.3,3.8l0,0.5c-0.2,5.1,0.9,10.3,4.1,14.4     c3.7,4.6,9.6,6.5,15.3,7.1c0.8,1.1,1.6,2.1,2.5,3C23.5,50.2,17.2,47.9,12.9,43.5C10,40.5,17.2,47.9,12.9,43.5z M25.5,36.6     c0.1,3.1,0.8,6,2.3,8.7c-4.5-0.7-9.1-2.3-12.1-5.9c-3.1-3.7-4.1-8.7-3.9-13.4l0-0.5c0-0.7,0-1.8,0.5-2.3c0.6-0.6,1.8-0.6,2.6-0.6     l3,0l0,1.6c0,0.5,0.4,1,1,1l6.3,0C26.3,28.9,25.4,32.8,25.5,36.6z M76.3,87.2H23.7c-1,0-1.9-0.6-2.2-1.5h57.1     C78.2,86.6,77.3,87.2,76.3,87.2z M76.4,82.3c1.1,0,2,0.5,2,1.5H21.7c-0.1-0.8,1-1.5,2-1.5H76.4z M59.9,80.3H40.1     c3.3-2.7,5-7.4,5.9-10.4H54C55.3,74.8,57.3,78.3,59.9,80.3z M56.6,68H43.4c-1,0-1.9-0.6-2.3-1.5h17.6C58.4,67.3,57.6,68,56.6,68z      M58.8,64.5H41.2c0.4-0.9,1.2-1.5,2.3-1.5h13.1C57.6,63,58.4,63.6,58.8,64.5z M55.3,61.1H44.7c-1.9-4-5.7-6.5-8.9-9.3     c-3.7-3.3-7.3-7.4-8.1-12.4c-0.8-4.6,0.7-9.2-0.4-13.7c-0.6-2.7-2.2-5-3.2-7.6c-0.4-0.9-1-2.1-0.9-3.1c0.1-1.1,1.1-2,2.3-2h48.9     c1,0,2,0.7,2.2,1.7c0.3,1-0.3,2.2-0.7,3.1c-1,2.5-2.6,4.9-3.2,7.5c-1.2,4.6,0.3,9.2-0.4,13.8c-0.7,5.1-4.2,9.2-7.9,12.5     C61.2,54.4,57.3,57,55.3,61.1z"/><path d="M69.7,42c0.5,0,1-0.4,1-1V25.6c0-1.3-2-1.3-2,0V41C68.7,41.6,69.2,42,69.7,42z"/><path d="M66.3,46c0.5,0,1-0.4,1-1V21.6c0-1.3-2-1.3-2,0v23.5C65.3,45.6,65.8,46,66.3,46z"/></g></svg>
