<svg xmlns="http://www.w3.org/2000/svg" viewBox="0 0 100 100"><g><path d="M87.041,14.19c-0.141-0.385-0.259-0.773-0.388-1.152C85.654,9.983,82.217,5.37,75.87,5.37H33.258    c-4.954,0-10.111,2.383-12.262,5.662c-0.543,0.82-0.896,1.687-1.058,2.571H19.63c-9.644,0-17.489,7.102-17.489,15.826v43.622    c0,8.727,7.845,15.825,17.489,15.825h60.875c9.644,0,17.495-7.099,17.495-15.825V29.429C98.001,22.215,94.604,16.036,87.041,14.19    z M28.146,13.356c0.329-0.458,0.758-0.875,1.217-1.267c1.181-0.438,2.527-0.729,3.896-0.729h37.781    c3.802-0.156,6.265,0.711,7.846,1.966c4.084,6.726,5.776,21.843,5.829,32.315c0,6.485-1.028,8.786-3.926,8.786H35.256    c-3.99,0-4.966-1.049-4.966-5.356c0-0.987-0.035-24.332-2.797-32.386C27.123,15.601,27.346,14.481,28.146,13.356z M92.007,73.051    c0,5.424-5.16,9.834-11.501,9.834H19.63c-6.341,0-11.5-4.41-11.5-9.834V29.429c0-5.424,5.16-9.834,11.5-9.834h3.673l1.942,0.267    c2.013,9.129,2.048,28.992,2.048,29.21c0,5.933,2.31,8.354,7.963,8.354h45.532c6.923,0,6.923-7.957,6.923-11.789    c-0.012-2.359-0.212-15.62-3.132-25.983c4.148,1.542,7.428,5.921,7.428,9.776V73.051z"/><path d="M20.782,27.627c-0.74-0.37-1.637-0.074-2.01,0.67c-3.132,6.268-3.191,39.744-0.08,49.073    c0.209,0.623,0.791,1.022,1.419,1.022c0.159,0,0.317-0.023,0.476-0.076c0.782-0.262,1.205-1.111,0.946-1.896    c-2.809-8.427-2.865-41.219-0.083-46.784C21.822,28.894,21.522,27.998,20.782,27.627z"/><path d="M57.559,48.437c3.302,0,5.994-2.688,5.994-5.991c0-3.3-2.692-5.991-5.994-5.991    c-3.303,0-5.988,2.691-5.988,5.991C51.57,45.748,54.256,48.437,57.559,48.437z M57.559,39.451c1.65,0,2.996,1.343,2.996,2.994    c0,1.654-1.346,2.997-2.996,2.997c-1.651,0-2.998-1.343-2.998-2.997C54.561,40.794,55.907,39.451,57.559,39.451z"/></g></svg>
