<svg xmlns="http://www.w3.org/2000/svg" viewBox="0 0 100 100"><g><path d="M27.997,30.284c8.328,0,15.171-6.843,15.171-15.171S36.325,0,27.997,0S12.884,6.785,12.884,15.113 S19.668,30.284,27.997,30.284z M27.997,6.891c4.581,0,8.222,3.642,8.222,8.222s-3.642,8.223-8.222,8.223s-8.222-3.642-8.222-8.223 S23.416,6.891,27.997,6.891z"/><path d="M72.004,30.284c8.328,0,15.112-6.843,15.112-15.171S80.332,0,72.004,0S56.832,6.785,56.832,15.113 S63.676,30.284,72.004,30.284z M72.004,6.891c4.58,0,8.222,3.642,8.222,8.222s-3.642,8.223-8.222,8.223 c-4.581,0-8.223-3.642-8.223-8.223S67.423,6.891,72.004,6.891z"/><path d="M34.945,41.517c0,8.328,6.843,15.17,15.171,15.17c8.328,0,15.113-6.842,15.113-15.17s-6.785-15.113-15.113-15.113 C41.788,26.404,34.945,33.189,34.945,41.517z M50.116,33.295c4.581,0,8.165,3.642,8.165,8.222c0,4.581-3.584,8.222-8.165,8.222 s-8.222-3.642-8.222-8.222C41.894,36.937,45.535,33.295,50.116,33.295z"/><path d="M16.589,91.488V38.333c0-0.708,0.509-1.158,1.216-1.158c1.918-0.006,3.469-1.567,3.462-3.486 c-0.006-1.91-1.553-3.456-3.462-3.462c-4.429,0-8.107,3.677-8.107,8.106v53.156c0,4.43,3.678,8.106,8.107,8.106h11.117v-6.948 H17.806C17.098,92.646,16.589,92.195,16.589,91.488z"/><path d="M82.194,30.226c-1.919-0.007-3.479,1.543-3.485,3.462c-0.007,1.918,1.543,3.479,3.462,3.486c0.008,0,0.016,0,0.023,0 c0.708,0,1.158,0.451,1.158,1.158v53.156c0,0.707-0.45,1.158-1.158,1.158H71.02v6.948h11.175c4.43,0,8.106-3.677,8.106-8.106V38.333 C90.301,33.903,86.624,30.226,82.194,30.226z"/><path d="M60.307,59.814c-0.916,0-1.838,0.342-2.49,0.984c-0.652,0.644-1.041,1.517-1.041,2.432c0,0.916,0.389,1.848,1.041,2.49 c0.652,0.644,1.574,0.997,2.49,0.984c0.707,0,1.158,0.451,1.158,1.158v24.03c0,0.707-0.451,1.158-1.158,1.158h-20.44 c-0.708,0-1.158-0.451-1.158-1.158v-24.03c0-0.707,0.45-1.158,1.158-1.158c0.916,0,1.838-0.341,2.49-0.984 c0.652-0.643,1.042-1.574,1.042-2.489c0-0.916-0.39-1.789-1.042-2.433c-0.652-0.643-1.574-0.997-2.49-0.984 c-4.429,0-8.106,3.62-8.106,8.049v24.03c0,4.429,3.677,8.106,8.106,8.106h20.44c4.43,0,8.107-3.678,8.107-8.106v-24.03 C68.414,63.435,64.736,59.814,60.307,59.814z"/></g></svg>
