<svg xmlns="http://www.w3.org/2000/svg" viewBox="0 0 100 100"><g fill='#FFF'><g><path d="M76.665,74.322c-1.843,0.57-3.81,1.102-5.875,1.582V85.5c2.109-0.494,4.071-1.053,5.875-1.66V74.322z"/><path d="M69.381,76.219c-1.941,0.42-3.958,0.793-6.031,1.107v9.547c2.114-0.295,4.128-0.65,6.031-1.057V76.219z"/><path d="M20.196,74.012c-2.233-0.713-4.287-1.477-6.109-2.262v9.404c1.749,1.037,3.782,1.979,6.109,2.805V74.012z"/><path d="M61.939,77.531c-2.35,0.324-4.762,0.572-7.204,0.73v9.438c2.507-0.135,4.909-0.354,7.204-0.641V77.531z"/><path d="M78.075,83.344c1.936-0.715,3.666-1.49,5.169-2.305v-9.156c-1.552,0.691-3.288,1.357-5.169,1.986V83.344z"/><path d="M53.325,78.342c-1.56,0.08-3.129,0.121-4.7,0.121c-0.887,0-1.774-0.016-2.662-0.045v9.416    c0.874,0.018,1.758,0.027,2.662,0.027c1.602,0,3.167-0.035,4.7-0.098V78.342z"/><path d="M12.677,71.115c-1.241-0.588-2.354-1.18-3.309-1.771c-1.075-0.887,2.69-3.063,4.589-4.082    c-0.626-0.117-5.039,2.125-5.744,3.318c-0.961,2.066-0.529,4.975-0.529,6.617c1.107,1.836,2.769,3.539,4.993,5.064V71.115z"/><path d="M88.805,68.58c-1.412-1.342-3.692-2.59-5.413-3.322c-0.002,0.188-0.022,0.381-0.075,0.576    c2.505,1.465,4.972,3.27,3.922,3.959c-0.769,0.482-1.637,0.957-2.585,1.426v9c2.814-1.75,4.627-3.65,5.248-5.529    C89.901,73.045,89.947,69.559,88.805,68.58z"/><path d="M27.714,76.043c-2.133-0.482-4.18-1.02-6.109-1.598v9.986c1.866,0.598,3.902,1.127,6.109,1.578V76.043z"/><path d="M35.938,77.545c-2.332-0.326-4.612-0.73-6.814-1.193v9.934c2.122,0.391,4.393,0.713,6.814,0.965V77.545z"/><path d="M44.554,78.361c-2.422-0.117-4.834-0.332-7.206-0.629v9.652c2.276,0.203,4.675,0.346,7.206,0.418V78.361z"/></g><g><path d="M81.247,62.684c-1.844,0.572-3.811,1.104-5.875,1.582v9.596c2.109-0.492,4.07-1.051,5.875-1.658V62.684z"/><path d="M73.963,64.582c-1.941,0.42-3.96,0.793-6.031,1.107v9.547c2.112-0.295,4.127-0.648,6.031-1.057V64.582z"/><path d="M24.777,62.373c-2.233-0.713-4.287-1.475-6.109-2.26v9.404c1.749,1.037,3.783,1.977,6.109,2.805V62.373z"/><path d="M66.521,65.895c-2.351,0.322-4.763,0.572-7.205,0.73v9.436c2.507-0.133,4.91-0.352,7.205-0.637V65.895z"/><path d="M82.656,71.705c1.937-0.713,3.666-1.488,5.17-2.305v-9.154c-1.552,0.691-3.288,1.357-5.17,1.986V71.705z"/><path d="M57.906,66.705c-1.561,0.08-3.128,0.121-4.699,0.121c-0.887,0-1.775-0.016-2.663-0.043v9.414    c0.875,0.018,1.758,0.027,2.663,0.027c1.602,0,3.166-0.035,4.699-0.098V66.705z"/><path d="M17.258,59.477c-1.241-0.584-2.354-1.178-3.309-1.771c-1.075-0.883,2.69-3.063,4.589-4.08    c-0.626-0.117-5.039,2.123-5.744,3.318c-0.961,2.066-0.528,4.973-0.528,6.617c1.107,1.836,2.77,3.539,4.993,5.064V59.477z"/><path d="M93.385,56.943c-2.388-2.271-7.283-4.291-7.694-3.957c2.878,1.469,7.5,4.27,6.13,5.17    c-0.769,0.48-1.637,0.957-2.585,1.426v8.998c2.813-1.75,4.627-3.648,5.246-5.529C94.481,61.406,94.529,57.922,93.385,56.943z"/><path d="M32.295,64.404c-2.132-0.48-4.179-1.02-6.109-1.596v9.988c1.866,0.596,3.902,1.125,6.109,1.576V64.404z"/><path d="M40.52,65.908c-2.331-0.326-4.612-0.73-6.814-1.195v9.934c2.122,0.391,4.393,0.715,6.814,0.965V65.908z"/><path d="M49.135,66.725c-2.422-0.115-4.834-0.332-7.206-0.631v9.654c2.276,0.203,4.675,0.348,7.206,0.42V66.725z"/></g><g><path d="M75.646,50.152c-1.843,0.571-3.81,1.102-5.874,1.583v9.596c2.108-0.492,4.072-1.051,5.874-1.658V50.152z"/><path d="M68.362,52.053c-1.941,0.418-3.958,0.791-6.031,1.105v9.547c2.112-0.295,4.127-0.65,6.031-1.057V52.053z"/><path d="M19.177,49.841c-2.234-0.713-4.288-1.475-6.109-2.261v9.406c1.749,1.037,3.783,1.977,6.109,2.803V49.841z"/><path d="M60.921,53.363c-2.351,0.324-4.763,0.572-7.206,0.729v9.439c2.509-0.137,4.911-0.354,7.206-0.639V53.363z"/><path d="M77.057,59.174c1.937-0.715,3.666-1.488,5.168-2.305v-9.155c-1.55,0.692-3.286,1.36-5.168,1.986V59.174z"/><path d="M52.307,54.174c-1.56,0.078-3.129,0.121-4.7,0.121c-0.887,0-1.774-0.018-2.662-0.045v9.416    c0.875,0.016,1.758,0.027,2.662,0.027c1.602,0,3.167-0.035,4.7-0.098V54.174z"/><path d="M11.658,46.945c-1.242-0.585-2.354-1.179-3.309-1.771c-1.075-0.885,2.689-3.063,4.588-4.082    c-0.626-0.118-5.039,2.123-5.744,3.318c-0.961,2.067-0.529,4.973-0.529,6.618c1.107,1.836,2.77,3.539,4.993,5.064V46.945z"/><path d="M87.785,44.411c-1.598-1.519-4.31-2.92-6.059-3.584c0.01,0.175,0.02,0.351,0.031,0.526    c2.673,1.512,5.588,3.533,4.462,4.272c-0.769,0.481-1.637,0.957-2.584,1.425v9.001c2.813-1.75,4.626-3.65,5.247-5.532    C88.883,48.875,88.929,45.39,87.785,44.411z"/><path d="M26.696,51.875c-2.133-0.484-4.179-1.02-6.109-1.599v9.988c1.866,0.598,3.902,1.125,6.109,1.578V51.875z"/><path d="M34.919,53.377c-2.331-0.326-4.613-0.73-6.814-1.195v9.934c2.123,0.393,4.394,0.715,6.814,0.967V53.377z"/><path d="M43.535,54.193c-2.422-0.117-4.834-0.332-7.206-0.629v9.652c2.276,0.203,4.674,0.346,7.206,0.418V54.193z"/></g><g><path d="M80.307,37.799c-1.843,0.572-3.81,1.104-5.875,1.583v9.595c2.109-0.493,4.071-1.051,5.875-1.659V37.799z"/><path d="M73.022,39.698c-1.941,0.42-3.958,0.792-6.031,1.107v9.547c2.114-0.296,4.128-0.65,6.031-1.059V39.698z"/><path d="M23.837,37.489c-2.233-0.712-4.288-1.475-6.109-2.261v9.407c1.749,1.036,3.782,1.977,6.109,2.802V37.489z"/><path d="M65.581,41.01c-2.351,0.324-4.762,0.572-7.204,0.73v9.438c2.507-0.135,4.909-0.353,7.204-0.638V41.01z"/><path d="M81.717,46.822c1.936-0.715,3.666-1.49,5.169-2.306v-9.155c-1.552,0.692-3.288,1.359-5.169,1.986V46.822z"/><path d="M56.967,41.821c-1.56,0.079-3.13,0.122-4.699,0.122c-0.887,0-1.775-0.017-2.663-0.045v9.417    c0.874,0.016,1.758,0.025,2.663,0.025c1.602,0,3.167-0.035,4.699-0.098V41.821z"/><path d="M16.318,34.592c-1.242-0.584-2.354-1.179-3.309-1.771c-1.075-0.885,2.69-3.063,4.589-4.081    c-0.626-0.118-5.039,2.123-5.745,3.317c-0.961,2.067-0.528,4.974-0.528,6.618c1.107,1.835,2.77,3.54,4.993,5.065V34.592z"/><path d="M92.446,32.058c-2.39-2.271-7.283-4.288-7.695-3.955c2.879,1.469,7.499,4.269,6.129,5.169    c-0.769,0.481-1.637,0.958-2.585,1.425v9c2.813-1.75,4.627-3.649,5.248-5.529C93.543,36.523,93.589,33.038,92.446,32.058z"/><path d="M31.356,39.522c-2.133-0.483-4.18-1.021-6.109-1.598v9.987c1.866,0.597,3.902,1.125,6.109,1.578V39.522z"/><path d="M39.579,41.023c-2.331-0.326-4.612-0.729-6.813-1.194v9.934c2.122,0.391,4.393,0.714,6.813,0.965V41.023z"/><path d="M48.195,41.841c-2.422-0.117-4.835-0.332-7.206-0.63v9.654c2.276,0.204,4.674,0.344,7.206,0.417V41.841z"/></g><g><path d="M69.203,29.193v7.837c2.109-0.493,4.071-1.05,5.873-1.659V28.06C73.132,28.54,71.219,28.943,69.203,29.193z"/><path d="M61.763,30.025v8.38c2.112-0.295,4.128-0.65,6.03-1.058v-8.005C65.747,29.527,63.758,29.815,61.763,30.025z"/><path d="M17.516,27.77c-1.563-0.402-3.322-0.848-5.017-1.462v6.378c1.748,1.037,3.783,1.977,6.109,2.803v-7.453    C18.243,27.95,17.879,27.864,17.516,27.77z"/><path d="M53.146,30.899v8.331c2.509-0.134,4.911-0.352,7.206-0.639v-8.094C58.872,30.617,53.488,30.84,53.146,30.899z"/><path d="M77.399,27.461c-0.307,0.082-0.608,0.16-0.913,0.239v7.174c1.938-0.715,3.666-1.49,5.169-2.306v-6.449    C80.284,26.655,78.834,27.082,77.399,27.461z"/><path d="M44.376,30.999v8.368c0.875,0.016,1.758,0.027,2.662,0.027c1.602,0,3.167-0.036,4.7-0.099v-8.396    C49.309,31.246,46.847,30.957,44.376,30.999z"/><path d="M7.029,23.04c-0.367-0.395-0.663-0.798-0.899-1.207c-0.272,1.754-0.034,3.674-0.034,4.896    c1.107,1.836,2.77,3.54,4.993,5.064v-6.048C9.539,25.064,8.111,24.201,7.029,23.04z"/><path d="M83.065,25.515v6.235c2.814-1.75,4.628-3.65,5.247-5.53c0-1.204,0.017-3.384-0.418-4.855    C86.803,23.252,85.077,24.552,83.065,25.515z"/><path d="M20.018,28.364v7.601c1.866,0.597,3.902,1.125,6.109,1.577v-8.034C24.078,29.188,22.038,28.813,20.018,28.364z"/><path d="M31.706,30.264c-1.389-0.164-2.78-0.345-4.169-0.546v8.098c2.122,0.391,4.393,0.715,6.813,0.965v-8.233    C33.465,30.462,32.583,30.368,31.706,30.264z"/><path d="M35.761,30.676v8.241c2.276,0.204,4.674,0.346,7.205,0.418v-8.326C40.559,31.002,38.148,30.878,35.761,30.676z"/></g><path d="M46.904,13c-23.314,0-39.562,4.226-39.562,8.019s16.247,8.02,39.562,8.02c23.314,0,39.561-4.227,39.561-8.02   S70.218,13,46.904,13z"/><path  d="M54.654,29.863c-0.151,0.071-0.311,0.129-0.487,0.164c-0.229,0.044-0.462,0.083-0.692,0.124   c0.551-0.02,1.1-0.042,1.649-0.067C54.96,30.023,54.801,29.952,54.654,29.863z"/><path d="M7.029,23.04c-0.422-0.453-0.744-0.918-0.994-1.39c0.312,0.929,1.125,1.788,2.349,2.572   C7.894,23.865,7.435,23.475,7.029,23.04z"/><path  d="M84.055,25.003c2.14-1.051,3.497-2.253,3.817-3.6C86.964,22.954,85.63,24.11,84.055,25.003z"/></g></svg>
