<svg xmlns="http://www.w3.org/2000/svg" viewBox="0 0 90 90"><path fill='#FFF' d="M80.7,4.8l-1-1.1L33,45.7l-0.8-0.9c-1.8-2-4.8-2.1-6.8-0.4l-1.1,1c-2,1.8-2.1,4.8-0.4,6.8l1.7,1.9L8,69.9  c-1.9,1.7-2.3,4.3-0.8,6l7.1,7.9c1.4,1.6,4.1,1.5,6-0.2l17.7-15.9l1.7,1.9c1.8,2,4.8,2.1,6.8,0.4l1.1-1c2-1.8,2.1-4.8,0.4-6.8  L47,61.3c0.3-0.3,0.6-0.6,1-0.9C57.5,52,82.8,29.8,83.7,14C84,10.4,82.9,7.3,80.7,4.8z M9.3,73.9c-0.2-0.3-0.1-1.1,0.6-1.8l0.9-0.8  l1.5,6L9.3,73.9z M18.2,81.4c-0.6,0.5-1.3,0.7-1.6,0.5l-3.3-12.8l3.6-3.2l3.4,13.7L18.2,81.4z M22.8,77.3l-3.4-13.7l3.6-3.2  l3.4,13.7L22.8,77.3z M28.9,71.8l-3.4-13.7l2.1-1.9l2.5,2.8l2.3,9.5L28.9,71.8z M35,66.4l-0.6-2.6l1.6,1.7L35,66.4z M45.5,66.8  l-1.1,1c-0.8,0.7-1.9,0.6-2.6-0.1L26.1,50.2c-0.7-0.8-0.6-1.9,0.1-2.6l1.1-1c0.8-0.7,1.9-0.6,2.6,0.1l0.8,0.9l14,15.6l0.9,1  C46.3,65,46.3,66.1,45.5,66.8z M80.8,13.9C79.9,28.4,55.3,50.1,46,58.2c-0.4,0.3-0.7,0.6-1,0.9l-6.5-7.2l34.1-30.6  c1.3-1.1,1.8-2.9,0.5-4.4L36.6,49.7l-1.7-1.9L79.4,8C80.5,9.6,80.9,11.6,80.8,13.9z"></path></svg>
