<svg xmlns="http://www.w3.org/2000/svg" viewBox="11 8 80 80"><g><path fill-rule="evenodd" clip-rule="evenodd" d="M85.231,12.023C7.764,1.454,11.324,26.875,22.095,57.754    c4.604,13.196,5.731,24.755-1.152,25.818c23.032,5.574,60.351,2.972,56.406-15.182C72.671,46.85,56.568,13.92,85.231,12.023z     M32.432,28.028c7.006-6.269,25.118-5.125,25.118-5.125s-0.568,12.917,2.217,17.032c-10.528,3.464-27.01,6.005-27.01,6.005    S26.291,33.521,32.432,28.028z M61.011,50.285l0.276,4.478l-25.939,6.233l-1.854-4.478L61.011,50.285z M62.073,56.659l0.277,4.478    L36.412,67.37l-1.855-4.479L62.073,56.659z M37.475,73.742l-1.855-4.476l27.515-6.232l0.277,4.476L37.475,73.742z"/><path fill-rule="evenodd" clip-rule="evenodd" d="M84.71,15.339c0,0-12.811,0.055-12.208,16.178  C83.092,33.53,92.143,26.398,84.71,15.339z"/></g></svg>
