<svg xmlns="http://www.w3.org/2000/svg" xmlns:xlink="http://www.w3.org/1999/xlink" version="1.1" x="0px" y="0px" viewBox="0 0 50 62.5" enable-background="new 0 0 50 50" xml:space="preserve"><g><g><path fill="#000000" d="M41.455,23.525"/></g><g><path fill="#000000" d="M32.382,1.079c-2.226,0.866-2.531,1.172-2.647,1.288c-0.098,0.1-0.352,0.356-24.034,38.005    c-0.039,0.044-2.086,2.776-0.551,5.218l2.463,3.916l-0.694-4.573c-0.019-0.142-0.451-3.591,3.401-5.285    c1.172-0.413,12.089-4.392,14.231-8.866c-0.01,0.021,2.942-5.792,2.942-5.792c0.111-0.177,3.581-5.949,3.27-12.599l-0.004-0.065    l-0.011-0.063c-0.271-1.49-0.775-5.716,0.143-7.356l-0.113,0.161c0.876-1.009,1.907-2.021,2.207-2.168    c0,0-0.065,0.032-0.178,0.041L32.382,1.079z M29.208,3.963c-1.419,2.536-0.469,8.026-0.357,8.645l-0.014-0.128    c0.283,6.046-2.993,11.516-3.027,11.57c-0.036,0.065-2.988,5.878-2.988,5.878c-1.534,3.206-10.057,6.81-13.212,7.928l0.102-0.03    l-0.086,0.021l-0.081,0.035c-4.186,1.841-4.794,5.605-4.531,7.339l1.77-0.657c-0.82-1.306,0.49-3.078,0.503-3.095    c8.036-12.77,23.303-37.008,23.897-37.834l-0.08,0.092c-0.036,0.038-0.06,0.054-0.061,0.055c0.21-0.148,1.224-0.588,2.04-0.905    l6.114-2.381l-6.541,0.521c-0.295,0.023-0.984,0.078-3.334,2.786l-0.064,0.074L29.208,3.963z"/></g><ellipse transform="matrix(0.877 0.4805 -0.4805 0.877 15.1677 -9.7779)" fill="#000000" cx="26.681" cy="24.735" rx="1.801" ry="2.308"/><path fill="#000000" d="M26.181,29.754c-0.607,1.117-1.812,1.636-2.682,1.159c-0.874-0.479-1.083-1.77-0.471-2.888   c0.612-1.119,1.816-1.636,2.686-1.159C26.587,27.342,26.796,28.636,26.181,29.754z"/><g><g><polygon fill="#000000" points="34.819,22.063 20.883,42.367 20.61,42.765 21.406,43.311 21.678,42.913 35.614,22.609      35.888,22.21 35.093,21.665    "/></g><g><path fill="#000000" d="M36.776,19.292l-2.852,2.004l-0.57,0.4l0.576,0.393l2.03,1.385l0.576,0.393l0.165-0.678l0.82-3.389     l0.3-1.243L36.776,19.292z M36.505,22.677l-2.031-1.385l0.006,0.793l2.851-2.003l-0.746-0.509l-0.82,3.389L36.505,22.677z"/></g><g><path fill="#000000" d="M26.157,34.355c-1.102,0.507-6.589,3.148-6.407,5.42c0.067,0.838,0.819,1.461,2.233,1.854l-0.296-0.235     c0.112,0.209,1.137,2.032,2.512,1.761c1.502-0.298,2.457-2.908,3.006-8.217l0.043-0.414l-0.403-0.104l-0.368-0.092l-0.165-0.044     L26.157,34.355z M26.247,34.838c-0.679,6.561-1.881,7.299-2.233,7.369c-0.538,0.107-1.228-0.811-1.478-1.271l-0.097-0.181     c-0.001,0-0.198-0.055-0.198-0.055c-0.956-0.266-1.499-0.622-1.529-1.002c-0.095-1.184,3.363-3.323,5.849-4.467l-0.321,0.03     l0.367,0.093L26.247,34.838z"/></g></g><g><g><polygon fill="#000000" points="42.419,20.165 28.484,40.469 28.213,40.865 29.008,41.412 29.28,41.013 43.214,20.709      43.485,20.313 42.691,19.767    "/></g><g><path fill="#000000" d="M44.374,17.393l-2.85,2.004l-0.57,0.401l0.575,0.392l2.032,1.382l0.576,0.393l0.164-0.677l0.818-3.388     l0.3-1.244L44.374,17.393z M44.104,20.776l-2.03-1.382l0.006,0.792l2.85-2.004l-0.746-0.508l-0.819,3.387L44.104,20.776z"/></g><g><path fill="#000000" d="M33.757,32.455c-1.101,0.507-6.588,3.147-6.405,5.42c0.067,0.838,0.818,1.461,2.233,1.854l-0.296-0.237     c0.112,0.209,1.136,2.031,2.511,1.762c1.501-0.298,2.457-2.908,3.008-8.217l0.044-0.414l-0.405-0.104l-0.369-0.093l-0.165-0.041     L33.757,32.455z M33.85,32.938c-0.683,6.563-1.884,7.299-2.236,7.369c-0.536,0.107-1.237-0.827-1.475-1.27l-0.098-0.183     L29.843,38.8c-0.956-0.264-1.499-0.62-1.529-1.003c-0.097-1.181,3.361-3.322,5.847-4.466l-0.32,0.03l0.37,0.094L33.85,32.938z"/></g></g></g><text x="0" y="65" fill="#000000" font-size="5px" font-weight="bold" font-family="'Helvetica Neue', Helvetica, Arial-Unicode, Arial, Sans-serif">Created by Mister Pixel</text><text x="0" y="70" fill="#000000" font-size="5px" font-weight="bold" font-family="'Helvetica Neue', Helvetica, Arial-Unicode, Arial, Sans-serif">from the Noun Project</text></svg>
