<svg xmlns="http://www.w3.org/2000/svg" xmlns:xlink="http://www.w3.org/1999/xlink" version="1.1" x="0px" y="0px" viewBox="0 0 100 125" enable-background="new 0 0 100 100" xml:space="preserve"><path fill="#000000" d="M95,82.824L58.316,46.14L69.17,35.287V20.719L53.45,5H38.883L5,38.882v14.567l15.72,15.719h14.567  l10.853-10.853L82.825,95L95,82.824z M37.959,60.41l-24.2-24.2l22.451-22.451L60.41,37.959L37.959,60.41z M40.665,9.305h11.002  l13.197,13.197v11.002l-2.932,2.932L37.733,12.238L40.665,9.305z M33.505,64.863H22.503L9.305,51.666V40.664l2.932-2.932l24.2,24.2  L33.505,64.863z M82.825,88.912l-7.289-7.289l9.7-2.476l3.676,3.676L82.825,88.912z M73.253,67.164l10.213,10.213l-9.7,2.476  l-5.046-5.046L73.253,67.164z M67.15,73.238L56.853,62.941l9.7-2.477l5.131,5.131L67.15,73.238z M55.426,49.337l9.357,9.357  l-9.7,2.477l-5.745-5.745L55.426,49.337z"/><text x="0" y="115" fill="#000000" font-size="5px" font-weight="bold" font-family="'Helvetica Neue', Helvetica, Arial-Unicode, Arial, Sans-serif">Created by Christopher T. Howlett</text><text x="0" y="120" fill="#000000" font-size="5px" font-weight="bold" font-family="'Helvetica Neue', Helvetica, Arial-Unicode, Arial, Sans-serif">from the Noun Project</text></svg>
