<svg xmlns="http://www.w3.org/2000/svg" viewBox="0 10 80 80"><g fill="#FFF"><path d="M29.104,38.128c-9.048,7.415-17.08,15.83-21.124,20.26c2.046-5.516,6.99-15.969,17.357-25.076l-1.092-1.396   C8.936,45.331,5.062,61.698,5.022,61.872c-0.09,0.397,0.102,0.804,0.465,0.986c0.126,0.063,0.262,0.094,0.396,0.094   c0.252,0,0.5-0.108,0.672-0.31c0.116-0.136,10.907-12.706,23.74-23.207c-0.147-0.055-0.282-0.145-0.385-0.278L29.104,38.128z"/><path d="M60.648,18c-5.184,2.659-14.975,7.968-24.282,14.58l0.787,1.006c0.108,0.138,0.171,0.303,0.184,0.475   c13.303-9.461,27.641-16.245,27.798-16.319c0.368-0.173,0.571-0.576,0.49-0.975c-0.081-0.399-0.425-0.692-0.832-0.708   c0,0-0.188-0.008-0.543-0.008c-2.993,0-17.64,0.544-32.714,10.354l1.092,1.396C43.904,20.498,54.893,18.52,60.648,18z"/><path d="M30.783,37.428l4.08-3.128c0.35-0.268,0.85-0.206,1.124,0.14l0.571,0.724l0.435-0.333   c0.187-0.143,0.31-0.356,0.339-0.59c0.008-0.061,0.008-0.121,0.004-0.181c-0.014-0.172-0.077-0.337-0.184-0.475l-0.787-1.006   L32.628,27.8l-1.092-1.396l-0.512-0.655c-0.299-0.382-0.849-0.452-1.234-0.157l-5.85,4.484c-0.187,0.144-0.309,0.356-0.339,0.59   c-0.03,0.234,0.035,0.47,0.181,0.656l0.465,0.594l1.092,1.396l3.767,4.816l0.806,1.03c0.104,0.132,0.239,0.222,0.385,0.278   c0.1,0.038,0.205,0.062,0.311,0.062c0.188,0,0.377-0.059,0.537-0.182l0.033-0.026l-0.551-0.74   C30.364,38.196,30.433,37.696,30.783,37.428z M25.724,30.936l4.446-3.408l5.04,6.443l-4.446,3.408L25.724,30.936z"/><path d="M59.339,64.04l-22.78-28.876l-0.571-0.724c-0.274-0.346-0.774-0.409-1.124-0.14l-4.08,3.128   c-0.35,0.268-0.42,0.768-0.156,1.122l0.551,0.74l22.191,29.795L66.38,87.335c0.155,0.217,0.402,0.338,0.657,0.338   c0.097,0,0.195-0.017,0.29-0.054l3.814-1.469c0.147-0.056,0.273-0.154,0.365-0.282l2.334-3.243   c0.214-0.297,0.201-0.701-0.032-0.983L59.339,64.04z M70.337,84.732L67.33,85.89L54.673,68.135L32.396,38.224l2.818-2.16   l22.869,28.988l14.085,17.135L70.337,84.732z"/></g></svg>
