<svg xmlns="http://www.w3.org/2000/svg" viewBox="15 15 70 70"><g><path d="M22.191,42.377c0-0.109,0.089-0.197,0.197-0.197h9.666c0.107,0,0.196,0.088,0.196,0.197v28.567     c0,0.109-0.089,0.196-0.196,0.196h-9.666c-0.108,0-0.197-0.087-0.197-0.196V42.377z"/><path d="M36.844,21.523c0-0.108,0.089-0.197,0.196-0.197h9.667c0.108,0,0.197,0.089,0.197,0.197v49.421     c0,0.109-0.089,0.196-0.197,0.196H37.04c-0.107,0-0.196-0.087-0.196-0.196V21.523z"/><path d="M66.99,34.496c0-0.108,0.088-0.197,0.195-0.197h10.504c0.108,0,0.196,0.089,0.196,0.197v36.448     c0,0.109-0.088,0.196-0.196,0.196H67.186c-0.107,0-0.195-0.087-0.195-0.196V34.496z"/><path d="M62.396,48.893c0-0.108-0.089-0.197-0.196-0.197H51.693c-0.108,0-0.197,0.089-0.197,0.197v22.051     c0,0.109,0.089,0.196,0.197,0.196H62.2c0.107,0,0.196-0.087,0.196-0.196V48.893z"/><path d="M85.19,78.477c0,0.108-0.088,0.197-0.195,0.197H15.006c-0.107,0-0.196-0.089-0.196-0.197v-2.933    c0-0.107,0.089-0.195,0.196-0.195h69.989c0.107,0,0.195,0.088,0.195,0.195V78.477z"/></g></svg>
