<svg xmlns="http://www.w3.org/2000/svg" viewBox="-45 5 180 90"><g fill="currentColor"><g><g><g><g><g><path d="M51.781,75.958c-0.045,0-0.089-0.001-0.135-0.005c-1.102-0.073-1.936-1.025-1.863-2.128        C50.01,70.427,52.189,64,58.82,64c1.578,0,6.378,0,7.704,3.294c0.633,1.57,0.178,3.241-0.578,4.664h3.555l0.277-13.333        c0.004-0.199,0.038-0.397,0.101-0.587c0.134-0.421,3.225-10.641-9.16-18.161c-6.772-4.113-9.934-10.146-11.354-15.595        c-1.42,5.448-4.581,11.481-11.354,15.595c-12.385,7.521-9.294,17.74-9.157,18.171c0.059,0.184,0.094,0.385,0.098,0.577        l0.277,13.333h3.555c-0.755-1.423-1.21-3.094-0.578-4.664C33.535,64,38.335,64,39.913,64c6.63,0,8.81,6.427,9.036,9.825        c0.073,1.103-0.761,2.055-1.863,2.128c-1.113,0.095-2.052-0.757-2.128-1.856C44.938,73.834,44.448,68,39.913,68        c-3.021,0-3.931,0.632-3.994,0.788c-0.194,0.48,0.843,2.333,2.286,3.73c0.585,0.567,0.77,1.434,0.464,2.188        c-0.306,0.756-1.038,1.251-1.853,1.251h-9.543c-1.088,0-1.977-0.87-2-1.958l-0.313-15.047        c-0.554-2.168-2.849-14.1,10.977-22.496c12.708-7.716,10.324-24.153,10.298-24.318c-0.089-0.576,0.078-1.164,0.458-1.607        s0.935-0.698,1.519-0.698h2.311c0.584,0,1.139,0.255,1.519,0.698s0.547,1.031,0.458,1.607        c-0.102,0.673-2.359,16.633,10.298,24.318c7.862,4.775,10.423,10.674,11.188,14.782c0.701,3.771,0.05,6.764-0.211,7.73        L73.46,74c-0.022,1.088-0.911,1.958-2,1.958h-9.544c-0.816,0-1.55-0.496-1.855-1.253c-0.305-0.757-0.12-1.623,0.469-2.188        c1.44-1.396,2.478-3.248,2.284-3.729C62.75,68.632,61.841,68,58.82,68c-4.587,0-5.028,5.842-5.045,6.091        C53.705,75.147,52.825,75.958,51.781,75.958z"/></g></g><g><g><path d="M50.671,90.5h-2.609c-0.552,0-1-0.447-1-1V54.796c-0.564-0.1-1.255-0.354-1.818-0.967        c-0.734-0.8-1.041-1.976-0.912-3.495c0.359-4.237,4.11-7.992,4.27-8.149c0.187-0.186,0.44-0.289,0.703-0.289h0.123        c0.263,0,0.516,0.104,0.703,0.289c0.16,0.157,3.911,3.912,4.27,8.15c0.129,1.519-0.178,2.694-0.912,3.494        c-0.563,0.612-1.253,0.867-1.818,0.967V89.5C51.671,90.053,51.223,90.5,50.671,90.5z M49.062,88.5h0.609V53.833        c0-0.294,0.129-0.572,0.353-0.763c0.224-0.19,0.518-0.276,0.81-0.224c0.035,0.004,0.767,0.08,1.182-0.371        c0.335-0.364,0.471-1.047,0.392-1.972c-0.215-2.54-2.044-5.013-3.042-6.188c-0.998,1.175-2.827,3.647-3.042,6.187        c-0.079,0.926,0.057,1.608,0.392,1.973c0.415,0.451,1.117,0.381,1.193,0.369c0.286-0.04,0.583,0.044,0.801,0.234        c0.218,0.19,0.35,0.465,0.35,0.754V88.5z"/></g></g></g><g><g><path d="M47.237,59.667H26.954c-0.552,0-1-0.447-1-1s0.448-1,1-1h20.283c0.552,0,1,0.447,1,1S47.79,59.667,47.237,59.667z"/></g></g><g><g><path d="M71.433,59.667H51.149c-0.552,0-1-0.447-1-1s0.448-1,1-1h20.283c0.552,0,1,0.447,1,1S71.985,59.667,71.433,59.667z"/></g></g></g></g></g></svg>
