<svg xmlns="http://www.w3.org/2000/svg" viewBox="-50 0 200 100"><g fill="currentColor"><path fill-rule="evenodd" clip-rule="evenodd" fill="none" d="M67.738,44.476c0.115,0.795,0.587,1.494,0.819,2.292  c0.547,1.875,0.61,3.817,0.913,5.725c0.079,0.5,0.218,1.056-0.116,1.484c-0.569,0.729-1.282,1.532-2.089,1.753  c-2.14,0.585-4.212,1.606-6.529,1.37c-0.562-0.058-0.725,0.21-0.662,0.753c0.096,0.826,0.13,1.659,0.189,2.489  c0.199,2.772-0.081,5.546,0.018,8.318c0.087,2.45,0.059,4.902-0.034,7.35c-0.13,3.415-0.359,6.827-0.562,10.24  c-0.154,2.604-0.363,5.207-0.486,7.813c-0.053,1.103-0.184,2.22,0.067,3.319c0.21,0.922,0.864,1.432,1.793,1.389  c0.65-0.03,1.277-0.161,1.868-0.468c1.765-0.914,3.313-2.078,4.597-3.619c2.074-2.491,4.04-5.06,5.779-7.795  c1.669-2.624,2.832-5.502,4.095-8.33c0.37-0.829,0.45-1.679,0.342-2.575c-0.331-2.725-0.732-5.445-0.918-8.181  c-0.155-2.281-0.491-4.541-0.609-6.827c-0.089-1.714-0.133-3.429,0.336-5.051c0.568-1.971,0.446-3.923,0.336-5.899  c-0.148-2.651-0.673-5.261-0.665-7.941c0.005-1.776-0.424-3.566-1-5.291c-0.659-1.97-1.309-3.952-1.716-5.987  c-0.396-1.979-1.197-3.804-2.085-5.564c-1.057-2.098-2.207-4.155-3.495-6.139c-1.434-2.208-3.254-4.075-4.913-6.084  c-1.15-1.394-2.651-2.433-3.885-3.753c-1.597-1.708-3.484-3.105-5.24-4.643c-1.128-0.988-2.366-1.851-3.563-2.759  c-1.039-0.789-1.582-0.859-2.366-0.238C47.05,2.344,46.174,3.093,45.341,3.9c-1.091,1.059-2.24,2.061-3.412,3.03  c-1.945,1.609-3.831,3.313-5.41,5.252c-1.472,1.808-3.282,3.311-4.537,5.317c-0.95,1.518-2.145,2.865-2.977,4.487  c-1.382,2.695-2.306,5.548-3.181,8.419c-0.946,3.104-1.376,6.316-1.811,9.524c-0.261,1.922-0.573,3.836-0.535,5.788  c0.051,2.561,0.078,5.122,0.089,7.683c0.003,0.831-0.086,1.642,0.52,2.364c0.228,0.271,0.275,0.736,0.309,1.121  c0.192,2.19,0.267,4.392,0.135,6.582c-0.227,3.757-0.445,7.513-0.53,11.276c-0.034,1.494,0.026,2.989,0.629,4.357  c0.735,1.671,1.635,3.27,2.723,4.747c1.631,2.218,3.354,4.363,5.115,6.479c1.657,1.989,3.347,3.944,5.324,5.627  c0.637,0.543,1.357,1.038,2.22,1.008c1.296-0.045,2.649-1.377,2.518-2.986c-0.258-3.156-0.833-6.275-1.006-9.439  c-0.02-0.372,0.196-0.871,0.043-1.024c-0.312-0.312-0.246-0.627-0.268-0.951c-0.041-0.6-0.006-1.206-0.079-1.801  c-0.522-4.296-0.586-8.618-0.757-12.934c-0.123-3.114-0.076-6.235-0.479-9.336c-0.1-0.765-0.429-1.099-1.194-1.133  c-1.038-0.047-2.08-0.059-3.113-0.151c-0.608-0.056-1.24-0.05-1.82-0.187c-1.011-0.238-1.958-0.683-2.791-1.343  c-0.463-0.366-0.729-0.784-0.774-1.396c-0.045-0.604,0.064-1.199,0.024-1.793c-0.153-2.266,0.754-4.361,1.026-6.557  c0.047-0.379,0.284-0.49,0.653-0.361c0.48,0.166,0.974,0.293,1.453,0.462c1.438,0.507,2.965,0.427,4.434,0.704  c1.412,0.266,2.831,0.419,4.256,0.553c1.356,0.127,2.713,0.254,4.07,0.374c0.305,0.027,0.56,0.094,0.548,0.472  c-0.025,0.831,0.079,1.658-0.025,2.494c-0.188,1.514-0.346,3.029-0.774,4.501c-0.412,1.417-0.61,2.901-1.33,4.222  c-0.551,1.012-0.411,1.485,0.502,2.167c1.241,0.927,2.659,1.563,3.911,2.469c0.899,0.649,1.817,0.92,2.73,0.002  c0.062-0.063,0.169-0.076,0.246-0.126c1.532-0.981,3.191-1.767,4.504-3.083c0.507-0.508,0.62-0.908,0.227-1.553  c-0.564-0.926-1.002-1.925-1.431-2.926c-0.857-2.001-1.294-4.143-2.103-6.162c-0.585-1.462,0.098-2.708,1.604-3.107  c0.067-0.018,0.136-0.029,0.204-0.041c1.183-0.201,2.369-0.384,3.548-0.605C61.631,45.813,64.694,45.255,67.738,44.476z"/><path fill-rule="evenodd" clip-rule="evenodd" d="M67.738,44.476c-3.044,0.78-6.107,1.337-9.167,1.911  c-1.179,0.222-2.365,0.405-3.548,0.605c-0.068,0.012-0.137,0.023-0.204,0.041c-1.507,0.4-2.189,1.645-1.604,3.107  c0.809,2.019,1.245,4.161,2.103,6.162c0.429,1.001,0.866,2,1.431,2.926c0.394,0.645,0.28,1.045-0.227,1.553  c-1.313,1.316-2.972,2.102-4.504,3.083c-0.077,0.05-0.185,0.063-0.246,0.126c-0.913,0.918-1.831,0.647-2.73-0.002  c-1.252-0.905-2.67-1.542-3.911-2.469c-0.913-0.682-1.053-1.155-0.502-2.167c0.719-1.32,0.917-2.805,1.33-4.222  c0.428-1.472,0.586-2.987,0.774-4.501c0.104-0.836,0-1.663,0.025-2.494c0.011-0.377-0.244-0.445-0.548-0.472  c-1.357-0.12-2.713-0.247-4.07-0.374c-1.425-0.134-2.845-0.287-4.256-0.553c-1.469-0.276-2.997-0.196-4.434-0.704  c-0.479-0.169-0.973-0.296-1.453-0.462c-0.369-0.128-0.606-0.018-0.653,0.361c-0.271,2.196-1.179,4.291-1.026,6.557  c0.041,0.594-0.069,1.189-0.024,1.793c0.045,0.612,0.311,1.03,0.774,1.396c0.833,0.66,1.78,1.104,2.791,1.343  c0.58,0.137,1.212,0.131,1.82,0.187c1.034,0.093,2.075,0.104,3.113,0.151c0.765,0.034,1.095,0.368,1.194,1.133  c0.404,3.101,0.356,6.222,0.479,9.336c0.171,4.315,0.235,8.638,0.757,12.934c0.072,0.595,0.038,1.201,0.079,1.801  c0.022,0.324-0.044,0.64,0.268,0.951c0.153,0.153-0.063,0.652-0.043,1.024c0.172,3.164,0.748,6.283,1.006,9.439  c0.131,1.609-1.222,2.941-2.518,2.986c-0.863,0.03-1.583-0.465-2.22-1.008c-1.977-1.683-3.667-3.638-5.324-5.627  c-1.762-2.116-3.484-4.262-5.115-6.479c-1.088-1.478-1.987-3.076-2.723-4.747c-0.603-1.368-0.663-2.863-0.629-4.357  c0.085-3.764,0.303-7.52,0.53-11.276c0.132-2.19,0.057-4.392-0.135-6.582c-0.034-0.385-0.081-0.85-0.309-1.121  c-0.606-0.723-0.517-1.533-0.52-2.364c-0.012-2.562-0.039-5.123-0.089-7.683c-0.039-1.952,0.274-3.866,0.535-5.788  c0.435-3.208,0.864-6.42,1.811-9.524c0.875-2.872,1.799-5.725,3.181-8.419c0.832-1.623,2.027-2.97,2.977-4.487  c1.255-2.006,3.065-3.51,4.537-5.317c1.579-1.939,3.465-3.643,5.41-5.252c1.171-0.969,2.321-1.972,3.412-3.03  c0.833-0.808,1.709-1.557,2.615-2.273c0.784-0.621,1.328-0.55,2.366,0.238c1.197,0.908,2.436,1.771,3.563,2.759  c1.756,1.538,3.644,2.935,5.24,4.643c1.233,1.32,2.734,2.359,3.885,3.753c1.659,2.009,3.479,3.876,4.913,6.084  c1.288,1.984,2.438,4.041,3.495,6.139c0.888,1.76,1.688,3.585,2.085,5.564c0.407,2.035,1.057,4.018,1.716,5.987  c0.576,1.725,1.005,3.515,1,5.291c-0.008,2.68,0.517,5.291,0.665,7.941c0.11,1.977,0.232,3.929-0.336,5.899  c-0.469,1.622-0.425,3.337-0.336,5.051c0.118,2.286,0.454,4.546,0.609,6.827c0.186,2.735,0.587,5.456,0.918,8.181  c0.108,0.896,0.028,1.746-0.342,2.575c-1.263,2.828-2.426,5.706-4.095,8.33c-1.739,2.735-3.705,5.304-5.779,7.795  c-1.283,1.541-2.832,2.705-4.597,3.619c-0.591,0.307-1.218,0.438-1.868,0.468c-0.929,0.043-1.583-0.467-1.793-1.389  c-0.251-1.1-0.12-2.217-0.067-3.319c0.123-2.606,0.332-5.209,0.486-7.813c0.202-3.413,0.432-6.825,0.562-10.24  c0.093-2.447,0.121-4.899,0.034-7.35c-0.099-2.772,0.182-5.546-0.018-8.318c-0.06-0.83-0.094-1.663-0.189-2.489  c-0.063-0.543,0.101-0.811,0.662-0.753c2.317,0.236,4.39-0.785,6.529-1.37c0.807-0.221,1.52-1.023,2.089-1.753  c0.334-0.429,0.195-0.984,0.116-1.484c-0.303-1.908-0.366-3.851-0.913-5.725C68.325,45.97,67.854,45.271,67.738,44.476z"/></g></svg>
