<svg xmlns="http://www.w3.org/2000/svg" viewBox="-50 0 200 100"><path fill="currentColor" d="M75.224,37.096l2.707-2.888h-4.185l0.028,0.058c-0.55-0.999-1.112-1.953-1.685-2.86c2.304-1.726,3.078-4.169,3.078-4.169  c-3.381,0-4.877,1.5-4.877,1.5v0.001c-0.761-1.058-1.527-2.046-2.295-2.981c1.876-2.356,2.295-4.843,2.295-4.843  c-2.505,0.413-4.684,2.453-4.684,2.453l0.007,0.008c-1.11-0.868-2.37-1.643-3.594-2.373l0.527-3.03l-3.148,1.599v0.001l-1.578-0.799  c-0.627-0.266-1.27-0.506-1.928-0.724c-1.023-7.577,4.485-12.105,4.485-12.105C43.036-4.38,37.771,18.478,37.771,18.478h0.001  c-0.773,0.299-1.523,0.63-2.25,0.997c-0.502,0.244-1.078,0.549-1.703,0.925l0.001-0.002c-1.333-1.754-4.551-3.544-4.551-3.544  c0.433,3.386,1.506,4.874,1.943,5.354c-0.28,0.223-0.565,0.457-0.853,0.708c-0.881-0.704-3.773-2.001-3.773-2.001  s0.498,2.831,1.611,4.114c-1.205,1.324-2.394,2.9-3.476,4.772l0.007-0.013c-1.273-0.9-4.69-1.166-4.69-1.166  s1.307,3.197,3.342,3.783l0.012-0.023c-0.625,1.373-1.192,2.875-1.672,4.519c-1.514-0.758-5.993-0.294-5.993-0.294  s3.079,2.746,5.334,2.886c-0.704,3.233-1.089,6.946-1.014,11.204l0.823-0.001c1.505-5.644,3.237,0.276,3.237,0.276  c-0.826,7.569,7.02,10.185,7.02,10.185c0.137,0.619,3.579,6.127,3.579,6.127c0.895,1.307,12.939,6.193,12.939,6.193l7.571,22.711  l5.575-0.275l-4.896-20.441c9.486-2.201,12.809-0.824,12.809-0.824l0.414,20.51l5.229-0.963l-0.396-22.043l1.774-3.906  c0,0,2.27-24.263,1.581-26.15C76.664,40.314,75.964,38.653,75.224,37.096z M56.969,57.348c-8.533,6.563-19.156-1.857-19.156-1.857  l-0.05-4.609c-0.012-1.101,21.52-1.63,21.681-0.167C59.55,51.676,56.969,57.348,56.969,57.348z M75.729,53.859  c-4.269,7.709-8.673,5.162-8.673,5.162L64.51,50.35v-0.531l11.564-1.259L75.729,53.859z"/></svg>
