<svg xmlns="http://www.w3.org/2000/svg" viewBox="-100 -2 400 200"><g fill="currentColor"><polygon fill="none" points="89.8,123.9 88.4,126.2 88.3,126.4 92.4,126.4 96.4,126.4 96.3,126.2 94.9,123.9 96.8,122 100.1,118.7    92.4,115.3 84.7,118.8 87.9,122  "/><path fill="none" d="M55.1,138.4c-2.9-2.8-10.5-10.4-18.4-20C23.2,101.9,16,88,15.3,77v-0.2c-1.4-19.2-2.7-37.3,17.8-70.6   c-3.3,2.4-8,6.4-12.7,12.6c-7.7,10.2-16.9,28.5-16.9,58c0,13.2,1.9,25.5,5.7,36.6c3,8.8,7.3,17,12.6,24.2   c6.9,9.3,13.7,14.5,16.6,16.4C42.5,152.3,53.9,146.9,55.1,138.4z"/><path fill="none" d="M48.8,163.6c-12.6,3.6-15.9,7.7-15.9,9.6C32.8,171.4,36.1,167.2,48.8,163.6z"/><path fill="none" d="M98.5,114.2c-2.8-4.2-4.7-9.4-6.1-14.5c-1.4,5.1-3.4,10.4-6.2,14.6l6.2-2.9L98.5,114.2z"/><path fill="none" d="M175.5,113.1c3.7-11.1,5.6-23.3,5.6-36.4c0-44.5-20.6-64.2-29.6-70.6c20.6,33.3,19.3,51.5,17.8,70.6V77   c-0.8,11-8,24.9-21.4,41.4c-7.9,9.7-15.5,17.3-18.4,20c1.2,8.5,12.6,13.9,16.7,15.6c2.9-1.9,9.9-7.3,16.8-16.8   C168.4,130,172.5,121.9,175.5,113.1z"/><path fill="none" d="M135.9,182.7c12.6-3.6,15.9-7.7,15.9-9.6C151.8,175,148.5,179.1,135.9,182.7z"/><path d="M184.6,76.7c0-59.5-35.7-76.3-35.7-76.3c-0.8-0.3-1.5-0.5-2-0.5c-3.5,0,1,6.9,1,6.9c20.8,33.2,19.4,50.6,18,69.9   c-1.6,22.5-33.1,53.8-39,59.4c-7.6-4.3-16.3-7.2-25.7-8.3l-2-3.3l6.9-6.9c-12.4-9-13.8-39.4-13.8-39.4s-1.4,30.5-13.8,39.4l6.9,6.9   l-2,3.3c-9.4,1.1-18.1,4.1-25.7,8.3c-5.9-5.6-37.3-36.9-39-59.4c-1.4-19.3-2.8-36.6,18-69.9c0,0,4.5-6.9,1-6.9   c-0.5,0-1.2,0.2-2,0.5C35.7,0.5,0,17.3,0,76.7c0,51.7,28.6,74.8,36.1,79.9c-2.3,3.9-4.1,8.1-5.3,12.6c-1,1.3-1.5,2.6-1.5,3.9   c0,10.1,28.2,18.3,62.9,18.3c34.8,0,62.9-8.2,62.9-18.3c0-1.4-0.5-2.7-1.5-3.9c-1.1-4.4-2.9-8.6-5.3-12.6   C156,151.5,184.6,128.4,184.6,76.7z M92.3,99.8c1.4,5.1,3.4,10.2,6.1,14.5l-6.1-2.7l-6.2,2.9C88.9,110.1,90.9,104.9,92.3,99.8z    M84.7,118.8l7.7-3.5l7.8,3.4l-3.3,3.3l-1.9,1.9l1.4,2.3l0.1,0.2h-4.1h-4.1l0.1-0.2l1.4-2.3l-1.9-1.9L84.7,118.8z M21.8,137.5   c-5.3-7.1-9.5-15.3-12.6-24.2c-3.8-11.1-5.7-23.5-5.7-36.6c0-29.5,9.2-47.8,16.9-58c4.7-6.2,9.5-10.2,12.7-12.6   C12.6,39.4,13.8,57.5,15.3,76.7V77c0.8,11,8,24.9,21.4,41.4c7.9,9.7,15.5,17.2,18.4,20c-1.1,8.5-12.6,13.9-16.7,15.6   C35.5,152.1,28.7,146.9,21.8,137.5z M151.8,173.2c0,1.9-3.4,6-15.9,9.6c-11.6,3.4-27.1,5.2-43.6,5.2s-32-1.9-43.6-5.2   c-12.6-3.6-15.9-7.7-15.9-9.6c0-1.9,3.4-6,15.9-9.6c11.6-3.4,27.1-5.2,43.6-5.2s32,1.9,43.6,5.2   C148.4,167.2,151.8,171.3,151.8,173.2z M146.3,154c-4.2-1.7-15.5-7.1-16.7-15.6c2.9-2.8,10.5-10.4,18.4-20   c13.4-16.4,20.6-30.3,21.4-41.4v-0.2c1.4-19.2,2.8-37.3-17.8-70.6c9,6.4,29.6,26.1,29.6,70.6c0,13.1-1.9,25.3-5.6,36.4   c-3,8.8-7.1,16.9-12.4,24.1C156.2,146.7,149.2,152.1,146.3,154z"/><path d="M32.8,173.2c0,1.9,3.4,6,15.9,9.6C36.1,179.1,32.8,175,32.8,173.2z"/></g></svg>
