<svg xmlns="http://www.w3.org/2000/svg" viewBox="-35 10 160 80"><g fill="currentColor"><g><path d="M50.482,86.71H50c-0.119,0-0.238-0.011-0.356-0.032c-0.687-0.124-16.856-3.156-20.491-13.25    c-0.087-0.243-0.127-0.502-0.117-0.761l1.087-26.302C30.08,44.71,30.004,25.668,49.06,15.524c0.29-0.154,0.612-0.234,0.94-0.234    h0.482c0.328,0,0.65,0.08,0.94,0.234c19.057,10.145,18.98,29.188,18.937,30.841l1.086,26.302c0.011,0.259-0.029,0.517-0.116,0.761    c-3.634,10.094-19.804,13.126-20.49,13.25C50.721,86.699,50.602,86.71,50.482,86.71z M50.193,82.71h0.096    c1.59-0.321,14.186-3.083,17.143-10.29l-1.072-25.962c-0.002-0.054-0.002-0.107,0-0.161c0.025-0.719,0.416-17.592-16.118-26.859    C33.635,28.757,34.117,46.12,34.124,46.297c0.002,0.054,0.002,0.107,0,0.161L33.05,72.42    C36.007,79.627,48.603,82.389,50.193,82.71z"/></g><g><g><g><g><g><circle cx="39.68" cy="64.119" r="0.99"/></g></g><g><g><circle cx="39.68" cy="58.062" r="0.99"/></g></g><g><g><circle cx="42.562" cy="61.138" r="0.99"/></g></g><g><g><circle cx="45.618" cy="58.062" r="0.99"/></g></g><g><g><circle cx="36.625" cy="61.138" r="0.99"/></g></g><g><g><circle cx="33.64" cy="58.153" r="0.99"/></g></g><g><g><circle cx="33.337" cy="70.969" r="0.99"/></g></g><g><g><circle cx="33.337" cy="64.912" r="0.99"/></g></g><g><g><circle cx="36.219" cy="67.988" r="0.99"/></g></g><g><g><circle cx="39.767" cy="77.025" r="0.99"/></g></g><g><g><circle cx="39.767" cy="70.969" r="0.99"/></g></g><g><g><circle cx="42.649" cy="74.045" r="0.99"/></g></g><g><g><circle cx="36.712" cy="74.045" r="0.99"/></g></g><g><g><circle cx="45.618" cy="70.026" r="0.99"/></g></g><g><g><circle cx="45.618" cy="63.97" r="0.99"/></g></g><g><g><circle cx="42.562" cy="67.046" r="0.99"/></g></g></g><g><g><g><circle cx="60.452" cy="64.119" r="0.99"/></g></g><g><g><circle cx="60.452" cy="58.062" r="0.99"/></g></g><g><g><circle cx="57.57" cy="61.138" r="0.99"/></g></g><g><g><circle cx="54.514" cy="58.062" r="0.99"/></g></g><g><g><circle cx="63.507" cy="61.138" r="0.99"/></g></g><g><g><circle cx="66.492" cy="58.153" r="0.99"/></g></g><g><g><circle cx="66.796" cy="70.969" r="0.99"/></g></g><g><g><circle cx="66.796" cy="64.912" r="0.99"/></g></g><g><g><circle cx="63.914" cy="67.988" r="0.99"/></g></g><g><g><circle cx="60.365" cy="77.025" r="0.99"/></g></g><g><g><circle cx="60.365" cy="70.969" r="0.99"/></g></g><g><g><circle cx="57.483" cy="74.045" r="0.99"/></g></g><g><g><circle cx="63.421" cy="74.045" r="0.99"/></g></g><g><g><circle cx="54.514" cy="70.026" r="0.99"/></g></g><g><g><circle cx="54.514" cy="63.97" r="0.99"/></g></g><g><g><circle cx="57.57" cy="67.046" r="0.99"/></g></g></g><g><g><path d="M46.294,53.75c-0.04,0-0.08-0.001-0.12-0.004l-12.667-0.75c-1.103-0.064-1.944-1.012-1.878-2.114       s1.027-1.961,2.115-1.878l12.667,0.75c1.103,0.064,1.944,1.012,1.878,2.114C48.226,52.931,47.344,53.75,46.294,53.75z"/></g></g><g><g><path d="M55.1,53.75c-1.05,0-1.932-0.819-1.995-1.882c-0.065-1.103,0.776-2.05,1.878-2.114l12.667-0.75       c1.089-0.087,2.049,0.774,2.115,1.878c0.065,1.103-0.776,2.05-1.878,2.114l-12.667,0.75C55.18,53.749,55.14,53.75,55.1,53.75z"/></g></g><g><g><path d="M53.583,48.5c-0.264,0-0.517-0.104-0.705-0.29c-0.198-0.196-0.304-0.466-0.295-0.744l0.401-11.644l-2.527-2.48       l-2.527,2.48l0.402,11.644c0.009,0.278-0.097,0.548-0.295,0.744c-0.197,0.195-0.46,0.31-0.746,0.289l-14.083-0.583       c-0.552-0.022-0.98-0.488-0.958-1.04c0.022-0.552,0.46-1,1.041-0.958l13.005,0.538l-0.38-11.005       c-0.01-0.28,0.099-0.552,0.299-0.748l3.358-3.296c0.343-0.577,1.297-0.61,1.696-0.071l3.431,3.367       c0.2,0.196,0.309,0.468,0.299,0.748L54.62,46.456l13.005-0.538c0.559-0.05,1.018,0.406,1.041,0.958s-0.406,1.018-0.958,1.04       l-14.083,0.583C53.611,48.5,53.597,48.5,53.583,48.5z"/></g></g><g><g><path d="M50.435,83.75h-0.101c-0.389,0-0.741-0.226-0.905-0.574l-2.948-2.781c-0.201-0.189-0.314-0.452-0.314-0.728v-23.25       H33.25c-0.552,0-1-0.447-1-1s0.448-1,1-1h13.917c0.552,0,1,0.447,1,1v23.818l2.217,2.092l2.217-2.092V55.417       c0-0.553,0.448-1,1-1h13.917c0.552,0,1,0.447,1,1s-0.448,1-1,1H54.601v23.25c0,0.275-0.113,0.538-0.314,0.728l-2.948,2.781       C51.175,83.524,50.824,83.75,50.435,83.75z"/></g></g></g></g></g></svg>
