<svg xmlns="http://www.w3.org/2000/svg" viewBox="-50 0 200 100"><g fill="currentColor"><path d="M69.2,60.1c0.1,0,0.2-0.1,0.3-0.2h3.8c-3.9-42.8-45.8-29.4-45.8-29.4l4.8,8.9c0,0-0.4,1.6-2.3,2.6c-2-2.2-3.9-4.6-5.9-7.3    c0,0-4.7,32.9-6.3,40.9l4-2.1l0.4-2.2l-0.6-0.8l0.2-6.7l8.2-5.8l4.6,6l-10.7,5.6c0,0,2.8,17.9,2.3,25.2L45,80.1l-2.8-5    c0,0-1-2.8-0.4-5.3c0.3-1.4,1.9-1.5,3.2-1.4c0.3,0.4,0.8,0.7,1.6,0.9c2.1,0.6,16.7,6,23.5,8.4c0,0,2.1,0.9,2.6,0    c0.7-1.3-1.6-2-1.6-2l-4.7-2.1c0.1-0.8,0.4-3.6,1.3-5.3c1-2,1.5-4.3,1.5-5.4c0,0-0.2,0-0.6,0C68.5,62.1,68.5,60.1,69.2,60.1z"/><path d="M67.9,11c-22.7-13.5-49.4,0-49.4,0l10.3,18.2c2.7-0.8,40.8-11.5,45.5,27.7h12.4C86.7,56.9,90.6,24.5,67.9,11z"/></g></svg>
