<svg xmlns="http://www.w3.org/2000/svg" viewBox="-20 10 140 70"><path fill="currentColor" d="M89.977,62.419l-10.034-1.144c-0.652-0.073-1.266,0.183-1.685,0.631l-11.347-1.473       c-0.003-0.153-0.011-0.308-0.026-0.463l11.883-0.431c0.354,0.568,0.978,0.947,1.69,0.947c0.025,0,0.05,0,0.076-0.001       l9.795-0.364l1.924-2.073l-2.073-1.925l-9.795,0.364c-0.734,0.027-1.354,0.451-1.679,1.054L66.892,57.97       c-0.017-0.269-0.045-0.532-0.081-0.79l12.101-2.28c0.373,0.441,0.927,0.711,1.524,0.711c0.124,0,0.25-0.011,0.376-0.035       l9.333-1.774l1.591-2.339l-2.338-1.591l-9.332,1.774c-0.718,0.136-1.266,0.644-1.5,1.284l-12.24,2.306       c-0.071-0.19-0.151-0.373-0.234-0.555l12.303-4.386c0.353,0.286,0.788,0.461,1.25,0.461c0.221,0,0.445-0.037,0.666-0.115       l8.667-3.058l1.221-2.552l-2.552-1.22l-8.667,3.058c-0.71,0.25-1.181,0.863-1.298,1.556l-12.665,4.515       c-0.098-0.122-0.205-0.238-0.311-0.355l12.177-6.659c0.29,0.155,0.612,0.245,0.942,0.245c0.318,0,0.641-0.075,0.94-0.236       l8.087-4.321l0.821-2.706l-2.707-0.821l-8.086,4.321c-0.69,0.368-1.067,1.083-1.049,1.815l-12.744,6.969       c-0.283-0.196-0.566-0.392-0.88-0.567l12.427-9.102c0.282,0.143,0.592,0.219,0.906,0.219c0.417,0,0.838-0.13,1.198-0.399       l7.083-5.31l0.401-2.8l-2.8-0.401l-7.083,5.31c-0.554,0.414-0.83,1.061-0.798,1.703l-13.45,9.852       c-0.203-0.072-0.406-0.144-0.617-0.21l12.104-11.765c0.249,0.106,0.514,0.162,0.779,0.162c0.519,0,1.038-0.201,1.43-0.602       l6.17-6.311l-0.032-2.828l-2.828,0.031l-6.169,6.311c-0.435,0.445-0.611,1.041-0.549,1.614L57.896,48.231l10.676-13.587       c0.144,0.032,0.288,0.07,0.435,0.07c0.604,0,1.201-0.273,1.594-0.79l5.568-7.33l-0.383-2.803l-2.803,0.383l-5.568,7.33       c-0.401,0.528-0.494,1.19-0.318,1.78L56.815,46.369l7.721-14.449c0.014,0,0.029,0.005,0.043,0.005       c0.721,0,1.418-0.392,1.775-1.075l4.59-8.799l-0.849-2.698l-2.698,0.849l-4.59,8.799c-0.32,0.613-0.29,1.316,0.017,1.881       l-9.299,17.401c-0.03,0.056-0.034,0.116-0.052,0.174c-0.053-0.004-0.103-0.009-0.157-0.013l6.76-18.812       c0.767-0.03,1.483-0.499,1.785-1.259l3.909-9.829l-1.748-3.488l-3.203,1.842l-2.754,10.213       c-0.147,0.544-0.048,1.104,0.231,1.561l-6.559,18.253l3.799-18.399c0.761-0.121,1.418-0.674,1.627-1.467l2.771-10.486       L57.4,12.945l-3.16,2.616l-1.016,10.798c-0.049,0.521,0.114,1.025,0.423,1.42l-3.107,15.048l-0.056-14.927       c0.551-0.319,0.943-0.894,0.997-1.578l0.878-11.107l-3.178-3.153l-2.667,3.177l0.968,11.1c0.057,0.663,0.445,1.238,1.003,1.559       l0.056,14.99L45.726,28.15c0.048-0.05,0.088-0.096,0.118-0.132c0.139-0.173,0.254-0.38,0.327-0.584       c0.037-0.102,0.065-0.204,0.084-0.301c0.009-0.061,0.018-0.12,0.027-0.177c0.014-0.162,0.011-0.246,0.011-0.246       c0-0.216-0.043-0.42-0.106-0.615c-0.005-0.038-0.014-0.096-0.021-0.157c-0.035-0.284-1.154-10.668-1.154-10.668l-3.259-2.022       l-2.022,3.26c0,0,2.385,9.967,2.463,10.269c0.06,0.209,0.107,0.374,0.139,0.486c0.014,0.041,0.027,0.08,0.039,0.117       l0.024,0.065l0.018,0.046l0.069,0.152c0.049,0.098,0.105,0.19,0.163,0.272l0.044,0.06c-0.021-0.027,0.069,0.096,0.184,0.209       c0.114,0.112,0.269,0.24,0.486,0.353c0.121,0.072,0.273,0.122,0.434,0.16l3.453,18.074l-6.19-17.987       c0.35-0.46,0.508-1.062,0.366-1.669l-2.586-10.841l-3.922-1.536l-1.536,3.922l4.248,9.717c0.285,0.652,0.893,1.098,1.583,1.187       l5.681,16.51l-8.287-15.383c0.261-0.508,0.313-1.118,0.076-1.687l-4.059-9.632l-3.958-0.879l-0.879,3.958l5.349,8.403       c0.389,0.612,1.077,0.958,1.785,0.926l9.232,17.137c-0.12,0.024-0.243,0.045-0.361,0.071L32.575,33.452       c0.298-0.638,0.257-1.41-0.186-2.02l-5.861-8.064l-2.793-0.442l-0.442,2.794l5.861,8.064c0.391,0.538,1.001,0.824,1.619,0.824       c0.051,0,0.101-0.02,0.153-0.024l9.425,13.056L29.08,36.314c0.14-0.637-0.031-1.329-0.52-1.83l-6.17-6.311l-2.828-0.031       l-0.032,2.828l6.169,6.311c0.392,0.4,0.911,0.602,1.43,0.602c0.2,0,0.399-0.039,0.592-0.098L40.05,50.173       c0,0-0.001,0-0.002,0.001l-14.103-10.33c0.032-0.642-0.245-1.288-0.798-1.702l-7.083-5.31l-2.8,0.401l0.401,2.8l7.083,5.31       c0.36,0.27,0.781,0.399,1.198,0.399c0.314,0,0.624-0.076,0.906-0.22l13.248,9.703c-0.285,0.19-0.56,0.386-0.817,0.593       l-13.628-7.537c0.041-0.752-0.341-1.496-1.05-1.874l-8.087-4.321l-2.707,0.821l0.822,2.706l8.087,4.321       c0.3,0.161,0.622,0.236,0.94,0.236c0.308,0,0.607-0.084,0.882-0.22l13.075,7.231L21.793,48.35       c-0.138-0.662-0.602-1.239-1.286-1.481l-8.667-3.058l-2.552,1.22l1.221,2.552l8.668,3.058c0.22,0.078,0.445,0.115,0.666,0.115       c0.487,0,0.942-0.196,1.304-0.513l13.619,4.761c-0.058,0.125-0.122,0.245-0.175,0.373L20.9,52.87       c-0.246-0.612-0.784-1.091-1.48-1.223l-9.332-1.774L7.75,51.463l1.591,2.339l9.333,1.774c0.126,0.024,0.252,0.035,0.375,0.035       c0.619,0,1.189-0.292,1.561-0.762l13.448,2.464c-0.036,0.219-0.072,0.439-0.094,0.665l-13.193-0.457       c-0.328-0.592-0.944-1.007-1.669-1.034l-9.796-0.364l-2.073,1.925l1.924,2.073l9.796,0.364c0.025,0.001,0.05,0.001,0.076,0.001       c0.719,0,1.349-0.388,1.701-0.966l13.205,0.457c-0.012,0.124-0.019,0.247-0.023,0.37l-12.644,1.596       c-0.418-0.472-1.051-0.742-1.724-0.668L9.51,62.419l-1.76,2.214c0,0,2.137,1.77,2.214,1.761l10.031-1.144       c0.792-0.09,1.416-0.634,1.66-1.34l12.183-1.538l-11.691,3.68c-0.427-0.217-0.93-0.29-1.428-0.157l-10.023,2.714l-1.408,2.453       l2.453,1.408l10.022-2.714c0.898-0.243,1.479-1.061,1.47-1.95l13.45-4.233c0.23-0.073,0.405-0.229,0.527-0.417       c0.221,0.12,0.479,0.167,0.729,0.102c0.077-0.02,0.146-0.056,0.214-0.092c3.268,1.185,7.931,1.668,12.193,1.668       c4.764,0,10.042-0.603,13.333-2.115l13.334,4.818c0.038,0.8,0.553,1.534,1.359,1.803l9.261,3.097l2.531-1.263l-1.263-2.53       l-9.261-3.097c-0.586-0.196-1.195-0.097-1.684,0.205l-8.068-2.915l7.923,1.028c0.231,0.729,0.869,1.293,1.678,1.385       l10.032,1.144l2.214-1.761L89.977,62.419z M50.41,50.347c6.199,0,10.458,1.146,12.662,3.406       c0.596,0.611,1.039,1.308,1.345,2.09c-0.029,0.003-0.058-0.002-0.086,0.004c-2.325-1.645-6.546-2.845-13.921-2.845       c-7.226,0-11.427,1.151-13.78,2.745C38.867,51.14,45.901,50.347,50.41,50.347z M62.558,58.111       c-0.366-0.204-0.726-0.372-1.082-0.489l-0.212-1.14c0.651,0.253,1.238,0.549,1.746,0.891L62.558,58.111z M58.568,57.34       c-0.411,0.025-0.852,0.066-1.317,0.114l-0.42-1.939c-0.009-0.041-0.031-0.075-0.045-0.113c0.835,0.116,1.654,0.266,2.437,0.453       L58.568,57.34z M64.157,59.329l0.3-0.489c0.12,0.209,0.21,0.433,0.284,0.665c-0.11,0.192-0.27,0.383-0.492,0.572       C64.318,59.826,64.285,59.558,64.157,59.329z M48.994,57.908l-0.88-2.701c-0.019-0.057-0.053-0.104-0.081-0.155       c0.837-0.035,1.642-0.05,2.377-0.05c0.082,0,0.173,0.002,0.257,0.002c-0.039,0.064-0.079,0.128-0.104,0.203l-0.878,2.705       C49.452,57.911,49.218,57.911,48.994,57.908z M36.426,58.751c0.203-0.328,0.462-0.628,0.769-0.903l-0.05,0.428       C36.902,58.41,36.662,58.569,36.426,58.751z M40.1,57.563l-0.526-1.088c0.676-0.262,1.412-0.48,2.189-0.659l-0.342,1.757       C40.954,57.556,40.509,57.549,40.1,57.563z M44.648,57.751l-0.905-2.309c0.828-0.123,1.668-0.215,2.499-0.281       c-0.013,0.034-0.035,0.063-0.045,0.099l-0.673,2.538C45.22,57.783,44.931,57.767,44.648,57.751z M38.978,59.838l0.865,1.789       c-0.37-0.106-0.713-0.218-1.034-0.334L38.978,59.838z M43.052,59.658c0.067,0.004,0.131,0.008,0.201,0.012l1.108,2.828       c-0.639-0.077-1.235-0.169-1.809-0.268L43.052,59.658z M46.329,62.568l0.717-2.704c0.158,0.005,0.324,0.01,0.486,0.014       l0.859,2.638c0.034,0.106,0.086,0.202,0.149,0.287c-0.787-0.025-1.538-0.068-2.262-0.123       C46.294,62.642,46.318,62.609,46.329,62.568z M52.48,55.256c-0.021-0.08-0.061-0.15-0.099-0.219       c0.85,0.029,1.738,0.078,2.64,0.159c-0.036,0.056-0.077,0.11-0.102,0.174l-0.914,2.397c-0.267,0.02-0.545,0.038-0.833,0.055       L52.48,55.256z M55.427,59.652c0.084-0.008,0.167-0.016,0.248-0.024l0.622,2.874c-0.645,0.077-1.329,0.138-2.036,0.19       c0.005-0.011,0.013-0.019,0.017-0.029L55.427,59.652z M59.794,59.515l0.425,2.285c-0.494,0.124-1.022,0.24-1.586,0.346       L59.794,59.515z M42.411,26.057c-0.004,0.01-0.006,0.021-0.01,0.032c0.003-0.009,0.004-0.017,0.007-0.026       C42.409,26.061,42.41,26.059,42.411,26.057z M42.301,26.525l0.026-0.17c0.001-0.003,0.002-0.007,0.003-0.01       c-0.022,0.118-0.037,0.239-0.037,0.364C42.293,26.709,42.289,26.646,42.301,26.525z M50.116,62.831       c0.075-0.093,0.139-0.196,0.177-0.315l0.849-2.613c0.178-0.004,0.344-0.01,0.516-0.015l0.722,2.678       c0.022,0.081,0.061,0.153,0.101,0.224c-0.69,0.026-1.396,0.044-2.133,0.044C50.268,62.834,50.194,62.831,50.116,62.831z"/></svg>
