<svg xmlns="http://www.w3.org/2000/svg" viewBox="45 55 160 80"><g fill="currentColor" transform="rotate(240, 100, 50)"><path d="M22.427,79.664c-0.152-2.192-0.325-4.683-0.325-7.271c-0.002-8.174,4.232-12.791,7.785-15.226    c4.376-3,9.125-3.799,11.237-3.799c3.902,0,7.274-4.358,7.308-4.402l0.08-0.102l0.107-0.084c0.042-0.034,4.403-3.41,4.405-7.312    c0-2.114,0.8-6.862,3.797-11.235c2.435-3.552,7.053-7.786,15.227-7.786c2.591-0.001,5.077,0.172,7.271,0.325    c5.44,0.379,9.738,0.678,12.387-1.68c2.105-1.873,3.212-5.385,3.481-11.064c0.006-0.112,0.04-0.339,0.092-0.64    c0.393-2.298,0.191-2.903,0.034-3.059c-0.006-0.002-0.666-0.245-3.081,1.749l2.396-0.6v1.229    c0.002,5.809-1.059,9.502-3.338,11.623c-3.054,2.844-7.77,2.505-13.74,2.076c-2.356-0.169-5.027-0.361-7.821-0.358    c-5.893,0-10.481,2.339-13.642,6.954c-2.738,3.995-3.463,8.386-3.463,10.15c0,4.774-4.553,8.958-4.748,9.133    c-0.112,0.128-4.304,4.683-9.07,4.683c-1.765,0-6.153,0.724-10.152,3.465c-4.612,3.16-6.952,7.75-6.952,13.642    c0,2.794,0.19,5.468,0.361,7.821c0.428,5.971,0.765,10.688-2.08,13.739c-2.119,2.28-5.813,3.341-11.622,3.341H7.133l0.602-2.397    c-1.995,2.414-1.753,3.071-1.747,3.081v-0.003c0.152,0.154,0.757,0.358,3.055-0.035c0.303-0.049,0.53-0.086,0.646-0.09    c5.674-0.269,9.186-1.376,11.057-3.48C23.105,89.4,22.805,85.104,22.427,79.664z"/><path  d="M24.341,79.53c-0.156-2.267-0.32-4.614-0.32-7.138c0-5.892,2.338-10.484,6.95-13.645    c4-2.739,8.389-3.462,10.154-3.462c4.49,0,8.103-4.238,8.756-5.059c0.817-0.653,5.061-4.271,5.061-8.759    c0-1.763,0.726-6.155,3.463-10.149c3.163-4.614,7.753-6.955,13.643-6.953c2.525-0.001,4.87,0.162,7.137,0.32    c5.892,0.409,10.543,0.733,13.797-2.162c2.519-2.235,3.825-6.179,4.123-12.399c0.003-0.083,0.031-0.226,0.064-0.413    c0.301-1.751,0.534-3.708-0.499-4.738c-1.49-1.493-4.042-0.217-8.526,4.268l-2.45,2.449l7-1.75    c-0.127,4.52-0.999,7.391-2.71,8.983c-2.444,2.274-6.792,1.962-12.297,1.568c-2.388-0.172-5.093-0.367-7.958-0.366    c-8.172,0-12.792,4.235-15.227,7.787c-2.999,4.374-3.797,9.122-3.797,11.235c0,3.926-4.076,7.674-4.183,7.78    c-0.039,0.04-3.781,4.118-7.715,4.118c-2.113,0-6.86,0.799-11.236,3.797c-3.553,2.435-7.785,7.056-7.785,15.227    c0,2.862,0.193,5.571,0.365,7.96c0.394,5.504,0.704,9.854-1.569,12.295c-1.592,1.711-4.462,2.582-8.982,2.712l1.75-7.004    l-2.45,2.452c-4.484,4.483-5.759,7.033-4.27,8.526c0.003,0,0.003,0,0.003,0c1.03,1.03,2.984,0.798,4.738,0.497    c0.186-0.03,0.33-0.058,0.407-0.064c6.225-0.296,10.171-1.605,12.403-4.122C25.074,90.071,24.751,85.419,24.341,79.53z     M9.042,95.621c-2.298,0.394-2.901,0.191-3.055,0.035v0.003c-0.006-0.01-0.248-0.668,1.747-3.081l-0.603,2.397h1.23    c5.807,0,9.502-1.061,11.622-3.341c2.845-3.052,2.508-7.771,2.08-13.739c-0.17-2.354-0.361-5.027-0.361-7.821    c0-5.892,2.34-10.481,6.952-13.642c3.998-2.741,8.387-3.465,10.152-3.465c4.766,0,8.958-4.554,9.07-4.683    c0.195-0.175,4.748-4.359,4.748-9.133c0-1.764,0.726-6.154,3.462-10.15c3.163-4.615,7.751-6.954,13.645-6.954    c2.793-0.001,5.463,0.191,7.821,0.358c5.971,0.43,10.687,0.768,13.738-2.076c2.28-2.121,3.342-5.812,3.338-11.623V7.48    l-2.396,0.599c2.417-1.991,3.076-1.75,3.081-1.748c0.156,0.155,0.358,0.76-0.035,3.059c-0.05,0.299-0.086,0.527-0.091,0.64    c-0.269,5.679-1.376,9.191-3.481,11.064c-2.649,2.358-6.946,2.059-12.385,1.68c-2.195-0.152-4.683-0.326-7.271-0.324    c-8.174,0-12.794,4.234-15.228,7.786c-2.996,4.373-3.797,9.122-3.797,11.235c-0.001,3.904-4.363,7.279-4.404,7.312l-0.107,0.084    l-0.08,0.102c-0.032,0.044-3.405,4.402-7.307,4.402c-2.114,0-6.86,0.798-11.237,3.798c-3.553,2.435-7.788,7.052-7.785,15.228    c0,2.589,0.172,5.076,0.325,7.271c0.38,5.441,0.678,9.735-1.681,12.388c-1.871,2.104-5.385,3.212-11.057,3.479    C9.572,95.536,9.345,95.572,9.042,95.621z"/><rect x="49.994" y="-9.476" transform="matrix(-0.7073 -0.7069 0.7069 -0.7073 51.6875 125.9171)" width="3.837" height="123.469"/></g></svg>
