<svg xmlns="http://www.w3.org/2000/svg" viewBox="0 50 200 100"><g transform="rotate(270, 100, 50)"><path d="M55.8,63.4c0.4,0,0.7-0.2,0.8-0.6l1.7-5c0.1-0.3,0-0.6-0.1-0.8c-0.2-0.2-0.4-0.4-0.7-0.4H55V19.2C55,8.3,44.5,5.1,44.4,5   c-0.3-0.1-0.6,0-0.8,0.1c-0.2,0.2-0.4,0.4-0.4,0.7v50.7h-0.8c-0.5,0-0.9,0.4-0.9,0.9v5c0,0.5,0.4,0.9,0.9,0.9h1.6v23.2h-1.6   c-0.5,0-0.9,0.4-0.9,0.9v5c0,0.2,0.1,0.5,0.3,0.6l1.7,1.7c0.2,0.2,0.4,0.3,0.6,0.3h10c0.2,0,0.5-0.1,0.6-0.3l1.7-1.7   c0.2-0.2,0.3-0.4,0.3-0.6v-5c0-0.5-0.4-0.9-0.9-0.9h-1.6V63.4H55.8z M52.4,75.3l-6.6,3.9v-4.6l6.6-3.9V75.3z M45.9,81.3l6.6-3.9V82   l-6.6,3.9V81.3z M52.4,68.6l-6.6,3.9V68l6.6-3.9V68.6z M45.9,65.9v-2.5h4.2L45.9,65.9z M45.1,7.2c2.5,1.1,8.2,4.4,8.2,12v37.4h-8.2   V7.2z M43.4,58.4h0.8h10h2.1l-1.1,3.2H43.4V58.4z M54.9,92.1l-1.1,1.1h-9.3l-1.1-1.1v-3.7H45h8.3h1.6V92.1z M48.2,86.6l4.3-2.6v2.6   H48.2z"/><path d="M50.8,89.9h-3.3c-0.5,0-0.9,0.4-0.9,0.9s0.4,0.9,0.9,0.9h3.3c0.5,0,0.9-0.4,0.9-0.9S51.3,89.9,50.8,89.9z"/><path d="M47.5,15c-0.5,0-0.9,0.4-0.9,0.9v36.6c0,0.5,0.4,0.9,0.9,0.9s0.9-0.4,0.9-0.9V15.9C48.4,15.4,48,15,47.5,15z"/></g></svg>
