<svg xmlns="http://www.w3.org/2000/svg" viewBox="50 75 100 50" ><g transform="rotate(270, 100, 50)" fill="currentColor"><g><path  d="M52.56,85.331h-5.12c-0.283,0-0.512-0.229-0.512-0.512V64.337c0-0.283,0.229-0.512,0.512-0.512    s0.512,0.229,0.512,0.512v19.97h4.096v-19.97c0-0.283,0.229-0.512,0.512-0.512s0.512,0.229,0.512,0.512v20.482    C53.072,85.102,52.843,85.331,52.56,85.331z"/></g><g><path d="M47.44,69.97c-0.22,0-0.424-0.143-0.49-0.365c-0.081-0.271,0.073-0.556,0.344-0.638l5.12-1.536    c0.271-0.081,0.556,0.073,0.638,0.344c0.081,0.271-0.073,0.556-0.344,0.638l-5.12,1.536C47.538,69.963,47.488,69.97,47.44,69.97z"/></g><g><path d="M47.44,73.042c-0.22,0-0.424-0.143-0.49-0.365c-0.081-0.271,0.073-0.556,0.344-0.638l5.12-1.536    c0.271-0.081,0.556,0.073,0.638,0.344c0.081,0.271-0.073,0.556-0.344,0.638l-5.12,1.536C47.538,73.035,47.488,73.042,47.44,73.042    z"/></g><g><path d="M47.44,76.114c-0.22,0-0.424-0.143-0.49-0.365c-0.081-0.271,0.073-0.556,0.344-0.638l5.12-1.536    c0.271-0.081,0.556,0.073,0.638,0.344c0.081,0.271-0.073,0.556-0.344,0.638l-5.12,1.536C47.538,76.107,47.488,76.114,47.44,76.114    z"/></g><g><path d="M47.44,79.187c-0.22,0-0.424-0.143-0.49-0.365c-0.081-0.271,0.073-0.556,0.344-0.638l5.12-1.536    c0.271-0.081,0.556,0.073,0.638,0.344c0.081,0.271-0.073,0.556-0.344,0.638l-5.12,1.536C47.538,79.18,47.488,79.187,47.44,79.187z    "/></g><g><path d="M47.44,82.259c-0.22,0-0.424-0.143-0.49-0.365c-0.081-0.271,0.073-0.556,0.344-0.638l5.12-1.536    c0.271-0.081,0.556,0.073,0.638,0.344c0.081,0.271-0.073,0.556-0.344,0.638l-5.12,1.536C47.538,82.252,47.488,82.259,47.44,82.259    z"/></g><g><path d="M47.44,85.331c-0.22,0-0.424-0.143-0.49-0.365c-0.081-0.271,0.073-0.556,0.344-0.638l5.12-1.536    c0.271-0.081,0.556,0.073,0.638,0.344c0.081,0.271-0.073,0.556-0.344,0.638l-5.12,1.536C47.538,85.324,47.488,85.331,47.44,85.331    z"/></g><g><path d="M52.048,92.5h-4.096c-0.136,0-0.266-0.054-0.362-0.15l-1.536-1.536c-0.096-0.096-0.15-0.226-0.15-0.362    v-5.633c0-0.283,0.229-0.512,0.512-0.512h7.169c0.283,0,0.512,0.229,0.512,0.512v5.633c0,0.136-0.054,0.266-0.15,0.362    L52.41,92.35C52.314,92.446,52.184,92.5,52.048,92.5z M48.164,91.476h3.672l1.236-1.236v-4.908h-6.145v4.908L48.164,91.476z"/></g><g><path d="M51.024,89.94h-2.048c-0.283,0-0.512-0.229-0.512-0.512s0.229-0.512,0.512-0.512h2.048    c0.283,0,0.512,0.229,0.512,0.512S51.307,89.94,51.024,89.94z"/></g><g><path d="M51.024,87.892h-2.048c-0.283,0-0.512-0.229-0.512-0.512s0.229-0.512,0.512-0.512h2.048    c0.283,0,0.512,0.229,0.512,0.512S51.307,87.892,51.024,87.892z"/></g><g><path d="M53.584,64.849h-7.169c-0.283,0-0.512-0.229-0.512-0.512v-1.536c0-0.283,0.229-0.512,0.512-0.512h7.169    c0.283,0,0.512,0.229,0.512,0.512v1.536C54.096,64.62,53.867,64.849,53.584,64.849z M46.928,63.825h6.145v-0.512h-6.145V63.825z"/></g><g><path d="M53.584,10.06h-7.169c-0.283,0-0.512-0.229-0.512-0.512V8.012c0-0.283,0.229-0.512,0.512-0.512h7.169    c0.283,0,0.512,0.229,0.512,0.512v1.536C54.096,9.831,53.867,10.06,53.584,10.06z M46.928,9.036h6.145V8.524h-6.145V9.036z"/></g><g><path  d="M60.241,23.373H39.759c-0.283,0-0.512-0.229-0.512-0.512v-7.681c0-0.283,0.229-0.512,0.512-0.512h20.482    c0.283,0,0.512,0.229,0.512,0.512v7.681C60.753,23.144,60.524,23.373,60.241,23.373z M40.271,22.349h19.458v-6.657H40.271V22.349z    "/></g><g><path d="M53.584,30.542h-7.169c-0.283,0-0.512-0.229-0.512-0.512v-1.536c0-0.283,0.229-0.512,0.512-0.512h7.169    c0.283,0,0.512,0.229,0.512,0.512v1.536C54.096,30.313,53.867,30.542,53.584,30.542z M46.928,29.518h6.145v-0.512h-6.145V29.518z"/></g><g><path d="M52.56,63.313h-5.12c-0.283,0-0.512-0.229-0.512-0.512V30.03c0-0.283,0.229-0.512,0.512-0.512h5.12    c0.283,0,0.512,0.229,0.512,0.512v32.771C53.072,63.084,52.843,63.313,52.56,63.313z M47.952,62.289h4.096V30.542h-4.096V62.289z"/></g><g><path d="M67.922,30.03h-5.12c-0.136,0-0.266-0.054-0.362-0.15l-0.874-0.874h-23.13l-0.874,0.874    c-0.096,0.096-0.226,0.15-0.362,0.15h-5.12c-0.283,0-0.512-0.229-0.512-0.512V8.524c0-0.283,0.229-0.512,0.512-0.512h5.12    c0.136,0,0.266,0.054,0.362,0.15l0.874,0.874h23.13l0.874-0.874c0.096-0.096,0.226-0.15,0.362-0.15h5.12    c0.283,0,0.512,0.229,0.512,0.512v20.994C68.434,29.801,68.205,30.03,67.922,30.03z M63.013,29.006h4.396V9.036h-4.396    L62.139,9.91c-0.096,0.096-0.226,0.15-0.362,0.15H38.223c-0.136,0-0.266-0.054-0.362-0.15l-0.874-0.874H32.59v19.97h4.396    l0.874-0.874c0.096-0.096,0.226-0.15,0.362-0.15h23.554c0.136,0,0.266,0.054,0.362,0.15L63.013,29.006z"/></g></g></svg>
