<svg xmlns="http://www.w3.org/2000/svg" viewBox="0 0 1000 1250"><g><path d="M780.8,819.2c-2.4,0-4.7-0.9-6.4-2.6L387.6,429.8c-3.5-3.5-3.5-9.2,0-12.7l20.5-20.5c1.7-1.7,4-2.6,6.4-2.6   c2.4,0,4.7,0.9,6.4,2.6l386.8,386.8c1.7,1.7,2.6,4,2.6,6.4c0,2.4-0.9,4.7-2.6,6.4l-20.5,20.5C785.5,818.3,783.2,819.2,780.8,819.2z    M414.5,398c-1.3,0-2.6,0.5-3.5,1.5l-20.5,20.5c-1.9,1.9-1.9,5.1,0,7.1l386.8,386.8c0.9,0.9,2.2,1.5,3.5,1.5c1.3,0,2.6-0.5,3.5-1.5   l20.5-20.5c0.9-0.9,1.5-2.2,1.5-3.5s-0.5-2.6-1.5-3.5L418,399.4C417.1,398.5,415.9,398,414.5,398z"/></g><g><path d="M378.4,428.2c-2.4,0-4.7-0.9-6.4-2.6l-34.3-34.3c-3.5-3.5-3.5-9.2,0-12.7l31.8-31.8c1.7-1.7,4-2.6,6.4-2.6   c2.4,0,4.7,0.9,6.4,2.6l34.3,34.3c3.5,3.5,3.5,9.2,0,12.7l-31.8,31.8C383.1,427.3,380.9,428.2,378.4,428.2z M376,348.2   c-1.3,0-2.6,0.5-3.5,1.5l-31.8,31.8c-1.9,1.9-1.9,5.1,0,7.1l34.3,34.3c0.9,0.9,2.2,1.5,3.5,1.5c1.3,0,2.6-0.5,3.5-1.5l31.8-31.8   c1.9-1.9,1.9-5.1,0-7.1l-34.3-34.3C378.6,348.7,377.4,348.2,376,348.2z"/></g><g><path d="M308.8,409.5c-2.4,0-4.7-0.9-6.4-2.6L193.9,298.3c-1.7-1.7-2.6-4-2.6-6.4s0.9-4.7,2.6-6.4l82.7-82.7c1.7-1.7,4-2.6,6.4-2.6   c2.4,0,4.7,0.9,6.4,2.6l108.6,108.6c3.5,3.5,3.5,9.2,0,12.7l-82.7,82.7C313.5,408.6,311.2,409.5,308.8,409.5z M283,204.2   c-1.3,0-2.6,0.5-3.5,1.5l-82.7,82.7c-0.9,0.9-1.5,2.2-1.5,3.5s0.5,2.6,1.5,3.5l108.6,108.6c0.9,0.9,2.2,1.5,3.5,1.5   c1.3,0,2.6-0.5,3.5-1.5l82.7-82.7c1.9-1.9,1.9-5.1,0-7.1L286.5,205.7C285.6,204.7,284.3,204.2,283,204.2z"/></g><g><path d="M160.8,356.8l34-63.2l30,30L160.8,356.8z M195.8,300.2l-25.3,47.1l47.7-24.7L195.8,300.2z"/></g><g><rect x="184.8" y="300.8" transform="matrix(0.7071 0.7071 -0.7071 0.7071 288.6512 -35.204)" width="4" height="60"/></g><g><path d="M210.5,238.9L191.4,202l36.4,19.6L210.5,238.9z M200.9,211.7l10.6,20.5l9.6-9.6L200.9,211.7z"/></g><g><rect x="191.6" y="215.7" transform="matrix(0.7071 0.7071 -0.7071 0.7071 214.5948 -82.6137)" width="30.8" height="4"/></g><g><path d="M243.5,439.5l34-63.2l30,30L243.5,439.5z M278.5,382.9L253.2,430l47.7-24.7L278.5,382.9z"/></g><g><rect x="267.6" y="383.6" transform="matrix(0.7071 0.7071 -0.7071 0.7071 371.3826 -69.4725)" width="4" height="60"/></g><g><path d="M202,398l34-63.2l30,30L202,398z M237,341.4l-25.3,47.1l47.7-24.7L237,341.4z"/></g><g><rect x="226" y="342" transform="matrix(0.7071 0.7071 -0.7071 0.7071 329.8595 -52.2732)" width="4" height="60"/></g><g><path d="M314.6,233.8l-30-30l63.2-34L314.6,233.8z M291.3,204.7l22.3,22.3l24.7-47.7L291.3,204.7z"/></g><g><rect x="319.9" y="165.8" transform="matrix(0.7071 0.7071 -0.7071 0.7071 232.7087 -170.2615)" width="4" height="60"/></g><g><path d="M397.3,316.5l-30-30l63.2-34L397.3,316.5z M374,287.5l22.3,22.3l24.7-47.7L374,287.5z"/></g><g><rect x="402.6" y="248.5" transform="matrix(0.7071 0.7071 -0.7071 0.7071 315.4401 -204.53)" width="4" height="60"/></g><g><path d="M355.8,275l-30-30l63.2-34L355.8,275z M332.5,246l22.3,22.3l24.7-47.7L332.5,246z"/></g><g><rect x="361.1" y="207" transform="matrix(0.7071 0.7071 -0.7071 0.7071 273.9169 -187.3306)" width="4" height="60"/></g><g><path d="M255.8,288.2c-6.3,0-12.2-2.4-16.6-6.9c-4.4-4.4-6.9-10.3-6.9-16.6s2.4-12.2,6.9-16.6c4.4-4.4,10.3-6.9,16.6-6.9   s12.2,2.4,16.6,6.9c4.4,4.4,6.9,10.3,6.9,16.6s-2.4,12.2-6.9,16.6C267.9,285.8,262,288.2,255.8,288.2z M255.8,245.2   c-5.2,0-10.1,2-13.8,5.7c-3.7,3.7-5.7,8.6-5.7,13.8s2,10.1,5.7,13.8c3.7,3.7,8.6,5.7,13.8,5.7c5.2,0,10.1-2,13.8-5.7   s5.7-8.6,5.7-13.8s-2-10.1-5.7-13.8S261,245.2,255.8,245.2z"/></g><g><path d="M295.6,328c-6.3,0-12.2-2.4-16.6-6.9c-4.4-4.4-6.9-10.3-6.9-16.6s2.4-12.2,6.9-16.6c4.4-4.4,10.3-6.9,16.6-6.9   s12.2,2.4,16.6,6.9c4.4,4.4,6.9,10.3,6.9,16.6s-2.4,12.2-6.9,16.6C307.7,325.6,301.8,328,295.6,328z M295.6,285   c-5.2,0-10.1,2-13.8,5.7s-5.7,8.6-5.7,13.8c0,5.2,2,10.1,5.7,13.8c3.7,3.7,8.6,5.7,13.8,5.7s10.1-2,13.8-5.7   c3.7-3.7,5.7-8.6,5.7-13.8c0-5.2-2-10.1-5.7-13.8S300.8,285,295.6,285z"/></g><g><path d="M335.3,367.8c-6.3,0-12.2-2.4-16.6-6.9c-4.4-4.4-6.9-10.3-6.9-16.6c0-6.3,2.4-12.2,6.9-16.6c4.4-4.4,10.3-6.9,16.6-6.9   s12.2,2.4,16.6,6.9c9.2,9.2,9.2,24.1,0,33.2C347.5,365.3,341.6,367.8,335.3,367.8z M335.3,324.8c-5.2,0-10.1,2-13.8,5.7   s-5.7,8.6-5.7,13.8c0,5.2,2,10.1,5.7,13.8c3.7,3.7,8.6,5.7,13.8,5.7c5.2,0,10.1-2,13.8-5.7c7.6-7.6,7.6-20,0-27.6   C345.4,326.8,340.5,324.8,335.3,324.8z"/></g><g><rect x="253.7" y="242.2" transform="matrix(3.076219e-02 0.9995 -0.9995 3.076219e-02 511.4617 -4.038673e-03)" width="4" height="42.9"/></g><g><rect x="234.3" y="262.7" transform="matrix(1.558332e-02 0.9999 -0.9999 1.558332e-02 516.4622 4.8585)" width="43" height="4"/></g><g><rect x="293.9" y="282.4" transform="matrix(3.076219e-02 0.9995 -0.9995 3.076219e-02 590.5031 -1.2201)" width="4" height="42.9"/></g><g><rect x="274.4" y="302.9" transform="matrix(1.558356e-02 0.9999 -0.9999 1.558356e-02 596.1268 4.2379)" width="43" height="4"/></g><g><rect x="333.3" y="321.8" transform="matrix(3.076219e-02 0.9995 -0.9995 3.076219e-02 668.076 -2.4135)" width="4" height="42.9"/></g><g><rect x="313.8" y="342.3" transform="matrix(1.558356e-02 0.9999 -0.9999 1.558356e-02 674.3117 3.6287)" width="43" height="4"/></g><g><path d="M377.2,398.7c-3.3,0-6.5-1.3-8.8-3.7c-4.9-4.9-4.9-12.8,0-17.7c2.4-2.4,5.5-3.7,8.8-3.7s6.5,1.3,8.8,3.7   c4.9,4.9,4.9,12.8,0,17.7C383.7,397.4,380.6,398.7,377.2,398.7z M377.2,377.7c-2.3,0-4.4,0.9-6,2.5c-3.3,3.3-3.3,8.7,0,12   c1.6,1.6,3.7,2.5,6,2.5s4.4-0.9,6-2.5c3.3-3.3,3.3-8.7,0-12C381.6,378.6,379.5,377.7,377.2,377.7z"/></g><g><path d="M219.3,265.8l-20.5-20.5l35.4-35.4l20.5,20.5L219.3,265.8z M204.5,245.3l14.8,14.8l29.7-29.7l-14.8-14.8L204.5,245.3z"/></g><g><rect x="774.9" y="764.4" transform="matrix(0.7071 0.7071 -0.7071 0.7071 783.2319 -319.1809)" width="4" height="43"/></g><g><rect x="759.8" y="749.3" transform="matrix(0.7071 0.7071 -0.7071 0.7071 768.1469 -312.9325)" width="4" height="43"/></g><g><rect x="660.8" y="650.3" transform="matrix(0.7071 0.7071 -0.7071 0.7071 669.1518 -271.9274)" width="4" height="43"/></g><g><rect x="674" y="663.5" transform="matrix(0.7071 0.7071 -0.7071 0.7071 682.3511 -277.3951)" width="4" height="43"/></g><g><rect x="683" y="669" transform="matrix(0.2505 0.9681 -0.9681 0.2505 1185.2355 -143.014)" width="4" height="49.9"/></g><g><rect x="685.1" y="692.8" transform="matrix(0.9937 0.1118 -0.1118 0.9937 83.5713 -72.3915)" width="4" height="32"/></g><g><rect x="703.9" y="687" transform="matrix(0.1465 0.9892 -0.9892 0.1465 1300.9132 -95.6888)" width="4" height="38"/></g><g><rect x="700" y="707.8" transform="matrix(0.9919 0.127 -0.127 0.9919 97.5688 -83.2761)" width="4" height="31.6"/></g><g><rect x="713.1" y="702.6" transform="matrix(0.7071 0.7071 -0.7071 0.7071 721.4778 -293.6013)" width="4" height="43"/></g><g><rect x="716.5" y="719.6" transform="matrix(0.9983 5.860750e-02 -5.860750e-02 0.9983 44.4998 -40.8392)" width="4" height="37.1"/></g><g><rect x="731.4" y="713.8" transform="matrix(0.1435 0.9896 -0.9896 0.1435 1348.9803 -101.8951)" width="4" height="29.2"/></g><g><rect x="738" y="720.1" transform="matrix(7.176752e-02 0.9974 -0.9974 7.176752e-02 1427.0787 -49.3366)" width="4" height="43.9"/></g><g><rect x="733.4" y="737" transform="matrix(0.7071 0.7071 -0.7071 0.7071 747.6213 -299.5912)" width="4" height="31.3"/></g><g><rect x="739.5" y="743.9" transform="matrix(0.9899 0.1421 -0.1421 0.9899 115.7059 -97.6502)" width="4" height="34.7"/></g><g><rect x="759.9" y="740.5" transform="matrix(1 3.906220e-03 -3.906220e-03 1 2.9575 -2.9703)" width="4" height="30.3"/></g><text x="0" y="1015" fill="#000000" font-size="5px" font-weight="bold" font-family="'Helvetica Neue', Helvetica, Arial-Unicode, Arial, Sans-serif">Created by Darren Northcott</text><text x="0" y="1020" fill="#000000" font-size="5px" font-weight="bold" font-family="'Helvetica Neue', Helvetica, Arial-Unicode, Arial, Sans-serif">from the Noun Project</text></svg>
