<svg xmlns="http://www.w3.org/2000/svg" viewBox="420 620 100 50"><path transform="rotate(270, 100, 50)" fill="currentColor"  d="M-495.1,380.6c-1.4,0-2.6,1.2-2.6,2.6s1.2,2.6,2.6,2.6c1.4,0,2.6-1.2,2.6-2.6S-493.6,380.6-495.1,380.6z   M-495.1,384.9c-1,0-1.7-0.8-1.7-1.7s0.8-1.7,1.7-1.7s1.7,0.8,1.7,1.7S-494.1,384.9-495.1,384.9z M-488.5,385.4c0.1,0,0.2,0,0.2-0.1  c0.7-0.5,1.1-1.2,1.2-2c0.1-0.8-0.3-1.6-0.9-2.2c-0.1-0.1-0.2-0.1-0.3-0.1l0.2-3.5c0-0.1,0-0.2-0.1-0.3c-0.1-0.1-0.2-0.1-0.3-0.1  h-3.1v-0.9c0-0.2-0.2-0.4-0.4-0.4h-6.1c-0.2,0-0.4,0.2-0.4,0.4v0.9h-3.1c-0.1,0-0.2,0.1-0.3,0.1c-0.1,0.1-0.1,0.2-0.1,0.3l0.2,3.5  c-0.1,0-0.2,0-0.2,0.1c-0.6,0.5-1,1.3-0.9,2.2c0.1,0.8,0.5,1.6,1.2,2c0.1,0,0.1,0.1,0.2,0.1l0.3,4.4c-0.1,0-0.1,0-0.2,0.1  c-0.6,0.5-1,1.3-0.9,2.2c0.1,0.8,0.5,1.6,1.2,2c0.1,0,0.1,0.1,0.2,0.1l0.3,4.4c-0.1,0-0.1,0-0.1,0.1c-0.6,0.5-1,1.3-0.9,2.2  c0.1,0.8,0.5,1.6,1.2,2c0,0,0.1,0,0.1,0.1l0.4,6.2c0,0.2,0.2,0.4,0.4,0.4h0.9v1.1c0,0.2,0.2,0.4,0.4,0.4h0.4V438h-0.4  c-0.2,0-0.4,0.2-0.4,0.4v1.3c0,0.2,0.2,0.4,0.4,0.4h0.4v16.6h-0.4c-0.2,0-0.4,0.2-0.4,0.4v4.8c0,0.1,0,0.2,0.1,0.3l1.3,1.3  c0.1,0.1,0.2,0.1,0.3,0.1h3.5c0.1,0,0.2,0,0.3-0.1l1.3-1.3c0.1-0.1,0.1-0.2,0.1-0.3v-4.8c0-0.2-0.2-0.4-0.4-0.4h-0.4v-16.6h0.4  c0.2,0,0.4-0.2,0.4-0.4v-1.3c0-0.2-0.2-0.4-0.4-0.4h-0.4V411h0.4c0.2,0,0.4-0.2,0.4-0.4v-1.1h0.9c0.2,0,0.4-0.2,0.4-0.4l0.4-6.2  c0,0,0,0,0,0c0.1,0,0.2,0,0.2-0.1c0.7-0.4,1.1-1.2,1.2-2c0.1-0.8-0.3-1.6-0.9-2.2c-0.1-0.1-0.2-0.1-0.2-0.1l0.3-4.4c0,0,0,0,0,0  c0.1,0,0.2,0,0.2-0.1c0.7-0.5,1.1-1.2,1.2-2c0.1-0.8-0.3-1.6-0.9-2.2c-0.1-0.1-0.2-0.1-0.3-0.1L-488.5,385.4  C-488.6,385.4-488.6,385.4-488.5,385.4z M-488.4,382c0.3,0.3,0.4,0.8,0.4,1.2c0,0.5-0.2,0.9-0.6,1.2L-488.4,382z M-502,383.2  c0-0.4,0.1-0.8,0.3-1.1l0.2,2.2C-501.8,384-502,383.6-502,383.2z M-497.7,376.7h5.2v0.4h-5.2V376.7z M-501.4,391.9  c0-0.4,0.1-0.8,0.3-1.1l0.1,2.1C-501.2,392.7-501.4,392.3-501.4,391.9z M-500.8,400.6c0-0.4,0.1-0.7,0.2-1l0.1,2  C-500.6,401.3-500.7,401-500.8,400.6z M-492.4,461.9l-1.1,1.1h-3.1l-1.1-1.1v-4.2h5.2V461.9z M-493.3,443.4v1.7l-3.5,1v-1.7  L-493.3,443.4z M-496.8,443.6v-3.3h3.5v2.3L-496.8,443.6z M-493.3,446v1.7l-3.5,1v-1.7L-493.3,446z M-493.3,448.7v1.7l-3.5,1v-1.7  L-493.3,448.7z M-493.3,451.3v1.7l-3.5,1v-1.7L-493.3,451.3z M-493.3,453.9v1.7l-3.5,1v-1.7L-493.3,453.9z M-493.3,456.5v0.3h-1  L-493.3,456.5z M-492.4,439.3h-5.2v-0.4h5.2V439.3z M-496.8,438V411h3.5V438H-496.8z M-492.4,410.1h-5.2v-0.3h5.2V410.1z   M-489.2,400.6c0,0.4-0.2,0.8-0.5,1.1l0.2-2.3C-489.3,399.8-489.2,400.2-489.2,400.6z M-491.1,408.5h-7.9l-2.1-30.6h12.2  L-491.1,408.5z M-488.6,391.9c0,0.4-0.2,0.8-0.5,1.1l0.2-2.3C-488.7,391.1-488.6,391.5-488.6,391.9z M-495.1,389.3  c-1.4,0-2.6,1.2-2.6,2.6c0,1.4,1.2,2.6,2.6,2.6c1.4,0,2.6-1.2,2.6-2.6C-492.4,390.5-493.6,389.3-495.1,389.3z M-495.1,393.7  c-1,0-1.7-0.8-1.7-1.7c0-1,0.8-1.7,1.7-1.7s1.7,0.8,1.7,1.7C-493.3,392.9-494.1,393.7-495.1,393.7z M-495.9,461.6h1.7  c0.2,0,0.4-0.2,0.4-0.4s-0.2-0.4-0.4-0.4h-1.7c-0.2,0-0.4,0.2-0.4,0.4S-496.2,461.6-495.9,461.6z M-495.1,398  c-1.4,0-2.6,1.2-2.6,2.6s1.2,2.6,2.6,2.6c1.4,0,2.6-1.2,2.6-2.6S-493.6,398-495.1,398z M-495.1,402.4c-1,0-1.7-0.8-1.7-1.7  s0.8-1.7,1.7-1.7s1.7,0.8,1.7,1.7S-494.1,402.4-495.1,402.4z M-495.9,459.9h1.7c0.2,0,0.4-0.2,0.4-0.4s-0.2-0.4-0.4-0.4h-1.7  c-0.2,0-0.4,0.2-0.4,0.4S-496.2,459.9-495.9,459.9z"/></svg>
