<svg xmlns="http://www.w3.org/2000/svg" viewBox="70 50 140 70"><path transform="rotate(225, 100, 50)" fill="currentColor" d="M78.249,34.302l0.659-2.67c0.084-0.34-0.016-0.699-0.264-0.947l-1.127-1.127l1.462-1.442  c0.189-0.187,0.297-0.442,0.298-0.708c0.001-0.267-0.104-0.522-0.293-0.71l-4.437-4.437c-0.188-0.188-0.441-0.293-0.707-0.293  c-0.254,0.032-0.522,0.107-0.711,0.296l-1.446,1.461l-1.213-1.213c-0.247-0.248-0.609-0.346-0.946-0.264l-2.683,0.662  c-8.082-6.863-15.403-10.342-21.767-10.342l-0.33,0.003c-0.269,0.005-0.523,0.118-0.708,0.313c-0.185,0.195-0.283,0.456-0.273,0.724  l0.09,2.436c0.019,0.495,0.396,0.901,0.887,0.957c5.078,0.574,11.708,4.428,19.215,11.163l-0.771,0.77  c-0.342,0.341-0.391,0.878-0.115,1.275l0.902,1.305L13.246,82.758c-0.387,0.391-0.386,1.021,0.003,1.41l3.727,3.727  c0.195,0.195,0.451,0.293,0.707,0.293c0.254,0,0.508-0.096,0.702-0.288l51.368-50.681l1.372,0.796  c0.392,0.228,0.889,0.163,1.209-0.158l0.662-0.662C79.78,44.74,83.663,51.4,84.239,56.498c0.056,0.492,0.463,0.632,0.957,0.649  L87.632,57c0.013,0,0.024,0,0.037,0c0.255,0,0.501,0.14,0.688-0.036c0.194-0.185,0.308-0.321,0.312-0.588  C88.792,49.91,85.288,42.565,78.249,34.302z M86.104,55.417c-0.955-5.565-5.201-12.575-12.337-20.346  c-0.185-0.201-0.442-0.318-0.715-0.324c-0.277,0.001-0.536,0.1-0.729,0.293l-0.859,0.859l-0.235-0.137l-0.896-0.52l-0.049-0.028  l-0.669-0.669l-2.929-2.929l-0.684-0.684l-0.02-0.028l-0.578-0.837l-0.214-0.31l0.923-0.923c0.193-0.193,0.299-0.456,0.293-0.729  c-0.006-0.272-0.123-0.531-0.324-0.715c-7.735-7.086-14.715-11.304-20.259-12.255l-0.021-0.551  c5.814,0.265,12.581,3.686,20.128,10.178c0.246,0.211,0.58,0.29,0.892,0.212l2.633-0.649l0.821,0.821l0.707,0.707l0.708,0.708  l2.989,2.988l0.707,0.707l0.707,0.707l0.737,0.737l-0.646,2.622c-0.078,0.315,0.002,0.647,0.214,0.893  c6.546,7.588,9.992,14.385,10.257,20.222L86.104,55.417z M17.688,85.778l-2.321-2.321l49.912-50.419l2.912,2.912L17.688,85.778z   M76.858,27.4l-0.755,0.745l-3.005-3.005l0.746-0.754L76.858,27.4z"/></svg>
