<svg xmlns="http://www.w3.org/2000/svg" viewBox="-50 0 200 100"><g fill="currentColor"><path d="M49.947,0.734C23,0.734,1.077,22.657,1.077,49.604c0,26.947,21.922,48.87,48.87,48.87   c26.946,0,48.869-21.923,48.869-48.87C98.816,22.657,76.894,0.734,49.947,0.734z M49.947,96.342   c-25.771,0-46.738-20.966-46.738-46.738c0-25.771,20.967-46.737,46.738-46.737c25.771,0,46.736,20.966,46.736,46.737   C96.684,75.376,75.718,96.342,49.947,96.342z"/><path d="M49.947,9.315c-22.215,0-40.29,18.074-40.29,40.289c0,22.085,17.863,40.067,39.897,40.28   C49.69,89.952,49.837,90,50,90c0.164,0,0.313-0.049,0.45-0.119c21.982-0.271,39.787-18.229,39.787-40.277   C90.236,27.389,72.161,9.315,49.947,9.315z M83,68.631V63c0-0.553-0.447-1-1-1s-1,0.447-1,1v8c0,0.19,0.067,0.358,0.16,0.511   c-2.509,3.563-5.609,6.678-9.16,9.202V63c0-0.553-0.447-1-1-1s-1,0.447-1,1v18c0,0.327,0.167,0.604,0.409,0.786   c-1.1,0.701-2.236,1.349-3.409,1.938V82c0-0.553-0.447-1-1-1s-1,0.447-1,1v2.661c-4.316,1.86-9.042,2.938-14,3.074V79   c0-0.553-0.448-1-1-1s-1,0.447-1,1v8.737c-3.139-0.077-6.185-0.531-9.093-1.326C39.964,86.285,40,86.147,40,86v-2   c0-0.553-0.448-1-1-1s-1,0.447-1,1v1.835c-3.245-1.072-6.299-2.565-9.095-4.421C28.963,81.287,29,81.148,29,81v-6   c0-0.553-0.448-1-1-1s-1,0.447-1,1v5.067c-1.412-1.066-2.75-2.227-4-3.475V56c0-0.553-0.448-1-1-1s-1,0.447-1,1v18.422   c-1.567-1.825-2.964-3.8-4.168-5.899C16.929,68.368,17,68.196,17,68V51c0-0.552-0.448-1-1-1s-1,0.448-1,1v13.898   c-2.059-4.686-3.21-9.857-3.21-15.295c0-5.437,1.151-10.608,3.21-15.294V41c0,0.552,0.448,1,1,1s1-0.448,1-1v-8   c0-0.517-0.397-0.927-0.9-0.979c2.64-5.062,6.376-9.463,10.9-12.879V37c0,0.552,0.448,1,1,1s1-0.448,1-1V18   c0-0.083-0.028-0.158-0.047-0.235c2.783-1.841,5.821-3.324,9.047-4.391V22c0,0.552,0.448,1,1,1s1-0.448,1-1v-9   c0-0.077-0.027-0.145-0.044-0.217c2.948-0.801,6.037-1.252,9.22-1.316C49.074,11.624,49,11.799,49,12v7c0,0.552,0.448,1,1,1   s1-0.448,1-1v-7c0-0.199-0.073-0.375-0.174-0.53c5.021,0.114,9.808,1.196,14.174,3.078V27c0,0.552,0.447,1,1,1s1-0.448,1-1V15.485   c1.122,0.562,2.211,1.179,3.267,1.846C70.104,17.509,70,17.741,70,18v18c0,0.552,0.447,1,1,1s1-0.448,1-1V18.495   c9.734,6.921,16.104,18.282,16.104,31.108C88.104,56.529,86.239,63.025,83,68.631z"/><path d="M50.259,8.863c1.544,0,2.799-1.256,2.799-2.799c0-1.542-1.255-2.798-2.799-2.798   c-1.543,0-2.798,1.256-2.798,2.798C47.461,7.607,48.716,8.863,50.259,8.863z M50.259,4.688c0.759,0,1.377,0.617,1.377,1.376   S51.018,7.44,50.259,7.44s-1.377-0.617-1.377-1.376S49.5,4.688,50.259,4.688z"/><path d="M50.259,90.348c-1.543,0-2.798,1.256-2.798,2.799c0,1.542,1.255,2.798,2.798,2.798   c1.544,0,2.799-1.256,2.799-2.798C53.058,91.604,51.803,90.348,50.259,90.348z M50.259,94.522c-0.759,0-1.377-0.617-1.377-1.376   s0.618-1.376,1.377-1.376s1.377,0.617,1.377,1.376S51.018,94.522,50.259,94.522z"/><path d="M82.935,21.016c1.092-1.091,1.092-2.867,0-3.958s-2.867-1.09-3.958,0.001c-1.091,1.09-1.092,2.866,0,3.957   C80.067,22.107,81.843,22.106,82.935,21.016z M79.981,18.064c0.538-0.537,1.411-0.537,1.946,0c0.537,0.536,0.537,1.41,0,1.947   c-0.537,0.537-1.41,0.537-1.946,0C79.445,19.475,79.444,18.601,79.981,18.064z"/><path d="M17.4,78.635c-1.091,1.092-1.092,2.866,0,3.958c1.091,1.091,2.866,1.091,3.957,0   c1.09-1.092,1.09-2.866,0-3.958C20.267,77.543,18.491,77.543,17.4,78.635z M20.352,81.587c-0.537,0.537-1.409,0.537-1.945,0   c-0.537-0.536-0.537-1.41-0.001-1.947c0.538-0.536,1.41-0.536,1.947,0C20.89,80.177,20.89,81.05,20.352,81.587z"/><path d="M93.487,47.118c-1.543,0-2.798,1.255-2.798,2.798s1.255,2.799,2.798,2.799c1.544,0,2.798-1.256,2.798-2.799   S95.031,47.118,93.487,47.118z M93.488,51.293c-0.76,0-1.378-0.618-1.378-1.377s0.618-1.376,1.377-1.376   c0.76,0,1.377,0.618,1.377,1.376S94.247,51.293,93.488,51.293z"/><path d="M6.406,47.118c-1.544,0-2.799,1.255-2.799,2.798s1.255,2.799,2.799,2.799c1.542,0,2.797-1.256,2.797-2.799   S7.948,47.118,6.406,47.118z M6.406,51.293c-0.76,0-1.377-0.618-1.377-1.377s0.617-1.376,1.377-1.376   c0.758,0,1.375,0.618,1.375,1.376S7.164,51.293,6.406,51.293z"/><path d="M78.534,78.635c-1.09,1.09-1.088,2.866,0.002,3.956c1.091,1.091,2.865,1.091,3.957,0   c1.091-1.09,1.09-2.866-0.001-3.956C81.401,77.542,79.627,77.542,78.534,78.635z M81.487,81.586   c-0.536,0.536-1.41,0.536-1.946-0.001c-0.537-0.536-0.537-1.41,0-1.946c0.536-0.535,1.41-0.537,1.946,0   C82.024,80.175,82.024,81.05,81.487,81.586z"/><path d="M20.917,21.015c1.09-1.091,1.09-2.867,0-3.958c-1.093-1.091-2.867-1.091-3.959,0   c-1.09,1.091-1.09,2.866,0,3.958C18.051,22.105,19.825,22.105,20.917,21.015z M17.964,18.063c0.537-0.537,1.41-0.537,1.947,0   c0.537,0.536,0.535,1.41,0,1.946c-0.537,0.537-1.41,0.537-1.947,0C17.428,19.473,17.428,18.599,17.964,18.063z"/><path d="M75,49v20c0,0.553,0.447,1,1,1s1-0.447,1-1V49c0-0.552-0.447-1-1-1S75,48.448,75,49z"/><path d="M76,35c-0.553,0-1,0.448-1,1v11c0,0.552,0.447,1,1,1s1-0.448,1-1V36C77,35.448,76.553,35,76,35z"/><path d="M33,58c-0.552,0-1,0.447-1,1v9c0,0.553,0.448,1,1,1s1-0.447,1-1v-9C34,58.447,33.552,58,33,58z"/><path d="M33,71c-0.552,0-1,0.447-1,1v8c0,0.553,0.448,1,1,1s1-0.447,1-1v-8C34,71.447,33.552,71,33,71z"/><path d="M76,29c-0.553,0-1,0.448-1,1v2c0,0.552,0.447,1,1,1s1-0.448,1-1v-2C77,29.448,76.553,29,76,29z"/><path d="M28,40c-0.552,0-1,0.448-1,1v10c0,0.553,0.448,1,1,1s1-0.447,1-1V41C29,40.448,28.552,40,28,40z"/><path d="M28,53c-0.552,0-1,0.447-1,1v3c0,0.553,0.448,1,1,1s1-0.447,1-1v-3C29,53.447,28.552,53,28,53z"/><path d="M22,30c-0.552,0-1,0.448-1,1v3c0,0.552,0.448,1,1,1s1-0.448,1-1v-3C23,30.448,22.552,30,22,30z"/><path d="M22,44c-0.552,0-1,0.448-1,1v3c0,0.552,0.448,1,1,1s1-0.448,1-1v-3C23,44.448,22.552,44,22,44z"/><path d="M44,26c0.552,0,1-0.448,1-1v-2c0-0.552-0.448-1-1-1s-1,0.448-1,1v2C43,25.552,43.448,26,44,26z"/><path d="M44,19c0.552,0,1-0.448,1-1v-3c0-0.552-0.448-1-1-1s-1,0.448-1,1v3C43,18.552,43.448,19,44,19z"/><path d="M56,80c-0.553,0-1,0.447-1,1v2c0,0.553,0.447,1,1,1s1-0.447,1-1v-2C57,80.447,56.553,80,56,80z"/><path d="M50,72c-0.552,0-1,0.447-1,1v2c0,0.553,0.448,1,1,1s1-0.447,1-1v-2C51,72.447,50.552,72,50,72z"/><path d="M71,41c-0.553,0-1,0.448-1,1v9c0,0.553,0.447,1,1,1s1-0.447,1-1v-9C72,41.448,71.553,41,71,41z"/><path d="M34,31c0.552,0,1-0.448,1-1v-7c0-0.552-0.448-1-1-1s-1,0.448-1,1v7C33,30.552,33.448,31,34,31z"/><path d="M39,67c-0.552,0-1,0.447-1,1v10c0,0.553,0.448,1,1,1s1-0.447,1-1V68C40,67.447,39.552,67,39,67z"/><path d="M66,59c-0.553,0-1,0.447-1,1v10c0,0.553,0.447,1,1,1s1-0.447,1-1V60C67,59.447,66.553,59,66,59z"/><path d="M56,67c-0.553,0-1,0.447-1,1v7c0,0.553,0.447,1,1,1s1-0.447,1-1v-7C57,67.447,56.553,67,56,67z"/><path d="M82,53c0.553,0,1-0.447,1-1V33c0-0.552-0.447-1-1-1s-1,0.448-1,1v19C81,52.553,81.447,53,82,53z"/><path d="M59,34c0.553,0,1-0.448,1-1V18c0-0.552-0.447-1-1-1s-1,0.448-1,1v15C58,33.552,58.447,34,59,34z"/><path d="M67,36c0-0.552-0.447-1-1-1s-1,0.448-1,1v4.146c-2.978-4.721-8.103-7.941-14-8.289V22c0-0.552-0.448-1-1-1   s-1,0.448-1,1v9.852c-1.38,0.073-2.72,0.295-4,0.666V29c0-0.552-0.448-1-1-1s-1,0.448-1,1v4.217c-3.296,1.403-6.075,3.779-8,6.756   V35c0-0.552-0.448-1-1-1s-1,0.448-1,1v7c0,0.362,0.202,0.665,0.49,0.84c-0.861,2.087-1.343,4.37-1.343,6.764   c0,7.352,4.48,13.676,10.853,16.388V85c0,0.553,0.448,1,1,1s1-0.447,1-1V66.691c1.573,0.456,3.229,0.714,4.947,0.714   c4.176,0,8.014-1.455,11.053-3.872V81c0,0.553,0.447,1,1,1s1-0.447,1-1V62c0-0.097-0.029-0.185-0.055-0.272   c2.97-3.182,4.803-7.438,4.803-12.123c0-1.766-0.268-3.468-0.748-5.08V36z M49.947,64.405c-8.161,0-14.8-6.64-14.8-14.801   s6.639-14.8,14.8-14.8s14.801,6.639,14.801,14.8S58.108,64.405,49.947,64.405z"/></g></svg>
