<svg xmlns="http://www.w3.org/2000/svg" viewBox="-7 -17 140 70"><path transform="rotate(45, 100, 50)" fill="currentColor" d="M0,100l13.423-3.531l63.265-63.267l4.945,4.945l1.414-1.414l-4.24-4.24l3.531-3.532l-2.118-2.118l13.422-13.42l3.531,3.531  l1.414-1.414l-1.413-1.412L100,11.303l-1.477-1.477c1.684-2.303,1.477-5.587-0.643-7.706c-1.185-1.185-2.734-1.778-4.274-1.778  c-1.217,0-2.417,0.391-3.434,1.135L88.697,0l-2.826,2.825l-1.412-1.412l-1.414,1.414l3.531,3.531l-13.42,13.421l-2.12-2.119  l-3.53,3.531l-4.239-4.238l-1.414,1.414l4.945,4.945L3.532,86.578L0,100z M93.606,2.342c1.075,0,2.091,0.424,2.86,1.193  c0.758,0.757,1.181,1.758,1.191,2.818c0.008,0.739-0.188,1.442-0.558,2.048L91.6,2.899C92.193,2.536,92.883,2.342,93.606,2.342z   M88.697,2.829l8.475,8.474l-1.411,1.41l-8.474-8.474L88.697,2.829z M75.276,20.487l4.234,4.236l-0.704,0.703l-4.234-4.234  L75.276,20.487z M91.521,12.714l-4.235-4.236l0.704-0.704l4.236,4.236L91.521,12.714z M90.107,14.128l-0.705,0.705l-4.236-4.236  l0.706-0.705L90.107,14.128z M87.988,16.247l-0.705,0.705l-4.236-4.236l0.705-0.705L87.988,16.247z M85.869,18.366l-0.705,0.705  l-4.236-4.235l0.705-0.706L85.869,18.366z M83.75,20.485l-0.705,0.705l-4.236-4.235l0.705-0.705L83.75,20.485z M81.63,22.604  l-0.705,0.705l-4.234-4.236l0.704-0.704L81.63,22.604z M71.036,20.488l8.474,8.473l-2.116,2.117l-8.474-8.473L71.036,20.488z   M5.164,88.234l6.986-0.387l-0.386,6.989l-8.958,2.356L5.164,88.234z M14.188,87.224L65.18,36.235l3.497-3.497l5.113,0.533  L13.857,93.205L14.188,87.224z M69.217,30.784l-0.588-5.64l6.227,6.229L69.217,30.784z M67.263,31.324l-4.003,4.003L12.773,85.81  l-5.976,0.332L66.729,26.21L67.263,31.324z"/></svg>
